<svg width="26" height="26" viewBox="0 0 26 26" fill="none" xmlns="http://www.w3.org/2000/svg">
<path fill-rule="evenodd" clip-rule="evenodd" d="M6.4647 4.33331H19.534C20.0092 4.3333 20.4192 4.33329 20.7586 4.35644C21.1159 4.38083 21.4733 4.43445 21.8265 4.5807C22.6227 4.91056 23.2555 5.54326 23.5852 6.33959C23.7315 6.69268 23.7851 7.05009 23.8096 7.4074C23.8327 7.74677 23.8327 8.15679 23.8327 8.63199V17.368C23.8327 17.8431 23.8327 18.2532 23.8096 18.5926C23.7851 18.9499 23.7315 19.3073 23.5852 19.6604C23.2555 20.4567 22.6227 21.0894 21.8265 21.4192C21.4733 21.5655 21.1159 21.6191 20.7586 21.6436C20.4192 21.6666 20.0092 21.6666 19.534 21.6666H6.46469C5.98949 21.6666 5.57947 21.6666 5.2401 21.6436C4.88279 21.6191 4.52539 21.5655 4.1723 21.4192C3.37596 21.0894 2.74326 20.4567 2.41341 19.6604C2.26716 19.3073 2.21353 18.9499 2.18915 18.5926C2.16599 18.2532 2.16601 17.8431 2.16602 17.368V8.632C2.16601 8.1568 2.16599 7.74677 2.18915 7.4074C2.21353 7.05009 2.26716 6.69268 2.41341 6.33959C2.74326 5.54326 3.37596 4.91056 4.1723 4.5807C4.52539 4.43445 4.88279 4.38083 5.2401 4.35644C5.57947 4.33329 5.9895 4.3333 6.4647 4.33331ZM4.67659 6.8009C5.07058 6.35063 5.75499 6.305 6.20527 6.69899L12.286 12.0196C12.6944 12.377 13.3043 12.377 13.7127 12.0196L19.7935 6.69899C20.2437 6.305 20.9282 6.35063 21.3221 6.8009C21.7161 7.25117 21.6705 7.93558 21.2202 8.32957L15.1395 13.6502C13.9141 14.7224 12.0846 14.7224 10.8592 13.6502L4.77851 8.32957C4.32823 7.93558 4.2826 7.25117 4.67659 6.8009Z" fill="currentColor"/>
</svg>
