<svg width="20" height="20" viewBox="0 0 20 20" fill="none" xmlns="http://www.w3.org/2000/svg">
<path fill-rule="evenodd" clip-rule="evenodd" d="M0.835938 4.49992C0.835938 2.47487 2.47756 0.833252 4.5026 0.833252H15.5026C17.5276 0.833252 19.1693 2.47487 19.1693 4.49992V15.4999C19.1693 17.5249 17.5276 19.1666 15.5026 19.1666H4.5026C2.47756 19.1666 0.835938 17.5249 0.835938 15.4999V4.49992ZM4.5026 2.66659C3.49008 2.66659 2.66927 3.4874 2.66927 4.49992V15.4999C2.66927 16.5125 3.49008 17.3333 4.5026 17.3333H15.5026C16.5152 17.3333 17.3359 16.5125 17.3359 15.4999V4.49992C17.3359 3.4874 16.5152 2.66659 15.5026 2.66659H4.5026ZM10.0026 7.24992C8.48378 7.24992 7.2526 8.48109 7.2526 9.99992C7.2526 11.5187 8.48378 12.7499 10.0026 12.7499C11.5214 12.7499 12.7526 11.5187 12.7526 9.99992C12.7526 8.48109 11.5214 7.24992 10.0026 7.24992ZM5.41927 9.99992C5.41927 7.46862 7.4713 5.41659 10.0026 5.41659C12.5339 5.41659 14.5859 7.46862 14.5859 9.99992C14.5859 12.5312 12.5339 14.5833 10.0026 14.5833C7.4713 14.5833 5.41927 12.5312 5.41927 9.99992ZM15.0443 6.33325C15.8036 6.33325 16.4193 5.71765 16.4193 4.95825C16.4193 4.19886 15.8036 3.58325 15.0443 3.58325C14.2849 3.58325 13.6693 4.19886 13.6693 4.95825C13.6693 5.71765 14.2849 6.33325 15.0443 6.33325Z" fill="currentColor"/>
</svg>
