<svg width="32" height="32" viewBox="0 0 32 32" fill="none" xmlns="http://www.w3.org/2000/svg">
<path d="M12 2.66659C12 1.93021 12.597 1.33325 13.3333 1.33325H18.6667C19.4031 1.33325 20 1.93021 20 2.66659V3.99992C20 4.73629 19.4031 5.33325 18.6667 5.33325H13.3333C12.597 5.33325 12 4.73629 12 3.99992V2.66659Z" fill="currentColor"/>
<path d="M21.9993 2.3335H9.99935C8.71068 2.3335 7.66602 3.37816 7.66602 4.66683V27.3335C7.66602 28.6222 8.71068 29.6668 9.99935 29.6668H21.9993C23.288 29.6668 24.3327 28.6222 24.3327 27.3335V4.66683C24.3327 3.37816 23.288 2.3335 21.9993 2.3335Z" stroke="currentColor" stroke-width="2.4"/>
<path d="M12 26H20" stroke="currentColor" stroke-width="2.4" stroke-linecap="round"/>
</svg>
