<svg width="18" height="18" viewBox="0 0 18 18" fill="none" xmlns="http://www.w3.org/2000/svg">
<path d="M13.8626 12.5756C13.3853 12.6896 12.8872 12.75 12.375 12.75C8.8542 12.75 6 9.8958 6 6.37501C6 6.0124 6.03027 5.65687 6.08843 5.31079C6.06129 5.3369 6.03324 5.36094 6.00371 5.38336C5.79325 5.54313 5.53114 5.60244 5.00692 5.72105L4.52966 5.82903C2.6849 6.24642 1.76252 6.45512 1.54307 7.16081C1.32362 7.86653 1.95244 8.60183 3.21008 10.0724L3.53544 10.4529C3.89282 10.8708 4.07151 11.0798 4.1519 11.3383C4.23229 11.5968 4.20527 11.8756 4.15124 12.4332L4.10205 12.9408C3.91191 14.903 3.81684 15.884 4.39136 16.3202C4.96588 16.7563 5.8295 16.3587 7.55678 15.5634L8.00363 15.3576C8.49443 15.1316 8.73983 15.0187 9 15.0187C9.26018 15.0187 9.50558 15.1316 9.99638 15.3576L10.4432 15.5634C12.1705 16.3587 13.0341 16.7563 13.6087 16.3202C14.1832 15.884 14.0881 14.903 13.898 12.9408L13.8626 12.5756Z" fill="currentColor" fill-opacity="0.42"/>
<path d="M6.86487 4.05628L6.6191 4.49717C6.34914 4.98145 6.21416 5.22359 6.00371 5.38336C6.03324 5.36093 6.06129 5.33689 6.08843 5.31079C6.03027 5.65687 6 6.0124 6 6.37501C6 9.8958 8.85416 12.75 12.375 12.75C12.8872 12.75 13.3853 12.6896 13.8626 12.5756L13.8488 12.4332C13.7947 11.8756 13.7677 11.5968 13.8481 11.3383C13.9285 11.0797 14.1072 10.8708 14.4645 10.4529L14.79 10.0724C16.0476 8.60182 16.6764 7.86645 16.4569 7.1608C16.2375 6.45511 15.3151 6.24642 13.4703 5.82902L12.9931 5.72104C12.4689 5.60242 12.2067 5.54312 11.9963 5.38336C11.7858 5.22359 11.6508 4.98145 11.3809 4.49718L11.1351 4.05628C10.1851 2.35209 9.71013 1.5 9.00003 1.5C8.28985 1.5 7.81488 2.3521 6.86487 4.05628Z" fill="currentColor"/>
</svg>
