<svg width="12" height="12" viewBox="0 0 12 12" fill="none" xmlns="http://www.w3.org/2000/svg">
<path d="M6.6882 6.42532C6.7238 6.43719 6.75939 6.4451 6.79499 6.45697C7.57416 6.70227 8.3296 7.00297 9.04548 7.4184C9.82861 7.88526 10.8411 7.62809 11.3039 6.84471C12.1622 5.36103 10.5049 3.73096 9.04548 4.58556C8.3296 4.99703 7.57416 5.29773 6.79499 5.54698C6.76335 5.55885 6.72775 5.56677 6.69611 5.57468L10.4812 2.85658L12 0.00395647L9.14832 1.52324L6.41925 5.32542C6.43111 5.28586 6.44298 5.24233 6.45484 5.20277C6.70007 4.42334 7.00066 3.66766 7.41595 2.95153C7.88266 2.16815 7.62558 1.15529 6.84245 0.692384C5.35926 -0.166172 3.72973 1.49159 4.58405 2.95153C4.99539 3.66766 5.29598 4.42334 5.54516 5.20277C5.55702 5.23838 5.56889 5.27794 5.5768 5.31355L2.85168 1.51533L0 0L1.51879 2.85262L5.30784 5.57468C5.27225 5.56281 5.2327 5.5549 5.1971 5.54303C4.41793 5.29773 3.66249 4.99703 2.9466 4.5816C1.48715 3.727 -0.174028 5.35707 0.6882 6.84075C1.15491 7.62413 2.16348 7.88131 2.9466 7.41444C3.66249 7.00297 4.41793 6.70227 5.1971 6.45302C5.23665 6.44115 5.28016 6.42928 5.31971 6.41741L1.51879 9.14738L0 12L2.85168 10.4807L5.56889 6.69436C5.56098 6.72601 5.54911 6.76162 5.5412 6.79327C5.29598 7.5727 4.99539 8.32839 4.58009 9.04451C3.72577 10.5045 5.35531 12.1662 6.8385 11.3037C7.62162 10.8368 7.87871 9.82789 7.412 9.04451C7.00066 8.32839 6.70007 7.5727 6.45089 6.79327C6.43902 6.75767 6.43111 6.72206 6.41925 6.68645L9.14436 10.4807L11.996 12L10.4773 9.14738L6.68425 6.42136L6.6882 6.42532Z" fill="currentColor"/>
</svg>
