<svg width="32" height="32" viewBox="0 0 32 32" fill="none" xmlns="http://www.w3.org/2000/svg">
<path d="M28.3154 26.8613C28.1904 26.3916 28.0137 25.9707 27.7949 25.5957C27.4121 24.9375 26.9043 24.4258 26.3457 24.0205C25.9257 23.7158 25.4765 23.4688 25.0214 23.2539C24.5575 23.0371 24.0868 22.8554 23.6318 22.6855C23.1601 22.0195 22.412 20.998 22.4325 19.3506C22.4462 18.2891 22.5292 18.0136 22.5458 14.9433C22.7978 14.7343 23.0361 14.4726 23.2412 14.1464C23.5117 13.7206 23.7275 13.1933 23.875 12.539C23.916 12.3574 23.9355 12.1777 23.9355 12.0019C23.9365 11.6298 23.8486 11.2753 23.7012 10.9609C23.5996 10.7421 23.4697 10.5409 23.3183 10.3593C23.3955 10.0741 23.4902 9.69131 23.5723 9.24212C23.6875 8.61906 23.7832 7.872 23.7832 7.08488C23.7832 6.57806 23.7432 6.05463 23.6407 5.53606C23.5635 5.14838 23.4502 4.76362 23.2891 4.39444C23.0488 3.83975 22.6992 3.31825 22.2129 2.88856C21.7627 2.48819 21.1973 2.17175 20.5166 1.96669C20.2285 1.62294 19.9307 1.32994 19.624 1.08581C19.1065 0.67175 18.5605 0.395375 18.0049 0.228375C17.4502 0.0605625 16.8867 0 16.3262 0C16.0293 0 15.7334 0.0175625 15.4375 0.0449375C15.1601 0.068375 14.9297 0.0976875 14.7236 0.132812C14.415 0.183625 14.1611 0.251938 13.915 0.337875C13.6679 0.422813 13.4306 0.5215 13.12 0.6445C13.0009 0.689438 12.8456 0.75875 12.6591 0.8535C12.332 1.0195 11.912 1.26169 11.4608 1.59763C10.7861 2.10156 10.041 2.8125 9.45897 3.77537C9.16991 4.25781 8.91991 4.80075 8.7461 5.41012C8.57028 6.0195 8.46872 6.69137 8.46872 7.42575C8.46872 7.88475 8.50879 8.36913 8.59372 8.87594C8.59372 8.91206 8.59472 8.94431 8.59766 8.9785C8.6016 9.041 8.60741 9.10837 8.61429 9.17575C8.62504 9.27731 8.63772 9.38081 8.64654 9.46875C8.65141 9.51369 8.65535 9.55275 8.65729 9.58206C8.65829 9.59769 8.66022 9.61037 8.66022 9.61919V9.62994V9.63288V9.6915L8.78422 10.2432C8.60647 10.4376 8.45216 10.6554 8.3321 10.8966C8.1651 11.2286 8.06547 11.6036 8.06547 12.0021C8.06547 12.1779 8.08504 12.3595 8.12604 12.5392C8.22466 12.9747 8.3536 13.3556 8.50785 13.6857C8.74122 14.1837 9.03422 14.5724 9.36135 14.8615C9.39066 14.8889 9.42191 14.9162 9.45316 14.9406C9.46879 18.0139 9.55178 18.2892 9.56547 19.3508C9.58597 20.9993 8.83697 22.0198 8.36622 22.6868C8.1621 22.7629 7.95604 22.8411 7.74904 22.9241C7.23147 23.1311 6.70804 23.3635 6.20997 23.6584C5.83597 23.8791 5.4756 24.1331 5.14454 24.4368C4.64841 24.8909 4.22072 25.4563 3.92579 26.1584C3.62891 26.8577 3.46385 27.6877 3.46485 28.6672C3.46485 28.8049 3.49316 28.9377 3.54197 29.0589C3.58591 29.1741 3.64747 29.2776 3.71972 29.3773C3.85547 29.5628 4.03122 29.7288 4.2471 29.889C4.62504 30.1664 5.12697 30.4281 5.77735 30.6742C6.75097 31.0414 8.0576 31.3695 9.7461 31.6117C11.4345 31.8506 13.5048 32 16 32C18.164 32 20.0078 31.8877 21.5595 31.7012C22.7236 31.5625 23.7246 31.3809 24.5742 31.1738C25.2109 31.0176 25.7636 30.8476 26.2372 30.667C26.5927 30.5332 26.9042 30.3926 27.1747 30.2481C27.3768 30.1406 27.5575 30.0293 27.7157 29.916C27.954 29.7441 28.1454 29.5644 28.29 29.3633C28.3622 29.2636 28.4228 29.1562 28.4667 29.039C28.5097 28.9237 28.536 28.7978 28.536 28.6669C28.5361 27.9971 28.459 27.3984 28.3154 26.8613ZM11.2197 22.6152C11.4102 22.5019 11.5947 22.3809 11.7656 22.2441C11.9482 22.0976 12.1182 21.9326 12.2666 21.748L15.666 23.3261L14.0683 26.2568L11.2197 22.6152ZM16.2675 29.0684L14.5595 26.8848L16.1738 23.9219L17.7822 26.8721L16.2675 29.0684ZM18.248 26.1973L16.6728 23.3096L19.708 21.7148C19.7754 21.8008 19.8457 21.8828 19.9219 21.9599C20.1622 22.207 20.4405 22.4121 20.7383 22.5898L18.248 26.1973ZM21.9453 14.0821C21.7285 14.2754 21.5 14.4014 21.2597 14.4883L21.0292 14.5732L20.9482 14.8047C20.6962 15.5118 20.452 16.0801 20.207 16.5371C19.9618 16.9922 19.7187 17.334 19.4648 17.6026L19.3652 17.709L19.3339 17.8496C19.2206 18.3711 19.1073 18.9473 19.1073 19.6289C19.1073 19.8399 19.1181 20.0586 19.1425 20.2901C19.1699 20.5606 19.2314 20.8145 19.3252 21.0489C19.3291 21.0606 19.334 21.0704 19.3388 21.0821L16.164 22.75L12.6465 21.1191C12.7548 20.8652 12.8281 20.5879 12.8593 20.29V20.289C12.8828 20.0585 12.8935 19.8398 12.8935 19.6298C12.8935 18.9472 12.7812 18.3691 12.667 17.8476L12.6357 17.7069L12.5361 17.6014C12.2832 17.3339 12.039 16.9921 11.7939 16.535C11.5498 16.0799 11.3056 15.5116 11.0547 14.8045L10.9726 14.5731L10.7421 14.4901C10.5819 14.4305 10.4277 14.3533 10.2772 14.2537C10.0526 14.1034 9.83872 13.8963 9.64341 13.5887C9.4471 13.2801 9.27135 12.867 9.14441 12.3084C9.12097 12.2029 9.11022 12.1004 9.11022 12.0018C9.11022 11.7791 9.16491 11.5662 9.26647 11.3622C9.35047 11.1942 9.46666 11.0351 9.61022 10.8905C9.84947 11.2538 10.0477 11.5409 10.12 11.6132C10.3553 11.8486 10.3885 11.2948 10.2762 10.6728C10.0712 9.52919 10.6268 10.0468 12.037 7.30456C14.8583 7.93056 19.788 4.9315 19.788 4.9315C19.788 4.9315 19.8475 6.29869 20.788 7.55356C21.6796 8.74206 22.1874 11.535 22.1874 11.535C22.1874 11.535 22.3095 11.3045 22.4902 10.9959C22.5985 11.1229 22.6884 11.2596 22.7538 11.4022C22.8427 11.5936 22.8906 11.7928 22.8906 12.0018C22.8906 12.0995 22.8798 12.203 22.8564 12.3084C22.7724 12.6805 22.665 12.9881 22.5458 13.244C22.3672 13.626 22.1611 13.8887 21.9453 14.0821Z" fill="currentColor"/>
<path d="M15.8867 26.6055C15.8867 26.8008 16.0449 26.959 16.2402 26.959C16.4345 26.959 16.5928 26.8008 16.5928 26.6055C16.5928 26.4121 16.4346 26.2539 16.2402 26.2539C16.0449 26.2539 15.8867 26.4121 15.8867 26.6055Z" fill="currentColor"/>
</svg>
