<svg width="20" height="20" viewBox="0 0 20 20" fill="none" xmlns="http://www.w3.org/2000/svg">
<path d="M12.1106 9.77219C11.7449 9.63034 11.7449 9.08859 11.7222 8.71133C11.6308 7.36753 12.0879 5.31598 11.5394 4.44375C11.151 3.92464 9.27636 3.97218 8.13388 4.0431C7.81352 4.09064 7.42513 4.16081 7.15085 4.30266C6.87657 4.44451 6.60229 4.67992 6.60229 4.89194C6.60229 5.19828 7.28836 5.1515 7.53924 5.55215C7.81352 5.97694 7.81352 6.89595 7.81352 7.65047C7.81352 8.5227 7.67601 9.67863 7.33371 9.72541C6.80782 9.7488 6.51086 9.2063 6.23658 8.80565C5.68801 8.02774 5.13945 7.06044 4.72766 6.11728C4.52213 5.62232 4.4073 5.07982 4.11034 4.8678C3.6532 4.53731 2.83036 4.51392 2.03018 4.53731C1.29876 4.5607 0.246983 4.46639 0.0414545 4.91458C-0.118726 5.40954 0.224309 5.88112 0.407164 6.28253C1.34411 8.38085 2.34981 10.2204 3.58445 11.9648C4.72766 13.5916 5.80138 14.8886 7.90421 15.5722C8.49886 15.7608 11.1042 16.3033 11.6301 15.5722C11.8129 15.2893 11.7676 14.6524 11.859 14.1809C11.9504 13.7093 12.0645 13.2377 12.499 13.2143C12.8647 13.1909 13.0702 13.5207 13.2992 13.7568C13.5508 14.0164 13.7563 14.2284 13.9392 14.4646C14.3736 14.9128 14.8308 15.5254 15.3793 15.7616C16.1334 16.0921 17.2993 15.9978 18.3964 15.9502C19.288 15.9268 19.928 15.7382 19.9968 15.1957C20.0429 14.7709 19.585 14.1582 19.3107 13.8044C18.6246 12.9321 18.305 12.6726 17.5275 11.8705C17.1845 11.5166 16.75 11.1394 16.75 10.7153C16.7273 10.4558 16.9329 10.2204 17.1157 9.96082C17.9159 8.73472 18.7161 7.8625 19.4475 6.58886C19.653 6.2116 20.1335 5.33937 19.9507 4.91458C19.7452 4.443 18.602 4.58409 17.8932 4.58409C16.9789 4.58409 15.7904 4.51317 15.5614 4.7018C15.127 5.00814 14.9441 5.50386 14.7386 5.97543C14.2815 7.06044 13.6641 8.16808 13.0241 8.99353C12.7952 9.27647 12.3615 9.86575 12.1099 9.77144L12.1106 9.77219Z" fill="currentColor"/>
</svg>
