<svg width="22" height="22" viewBox="0 0 22 22" fill="none" xmlns="http://www.w3.org/2000/svg">
<path d="M18.4771 6.27006C15.8371 2.20006 10.4471 0.990061 6.26707 3.52006C2.19707 6.05006 0.877072 11.5501 3.51707 15.6201L3.73707 15.9501L2.85707 19.2501L6.15707 18.3701L6.48707 18.5901C7.91707 19.3601 9.45707 19.8001 10.9971 19.8001C12.6471 19.8001 14.2971 19.3601 15.7271 18.4801C19.7971 15.8401 21.0071 10.4501 18.4771 6.27006ZM16.1671 14.7401C15.7271 15.4001 15.1771 15.8401 14.4071 15.9501C13.9671 15.9501 13.4171 16.1701 11.2171 15.2901C9.34707 14.4101 7.80707 12.9801 6.70707 11.3301C6.04707 10.5601 5.71707 9.57006 5.60707 8.58006C5.60707 7.70006 5.93707 6.93006 6.48707 6.38006C6.70707 6.16006 6.92707 6.05006 7.14707 6.05006H7.69707C7.91707 6.05006 8.13707 6.05006 8.24707 6.49006C8.46707 7.04006 9.01707 8.36006 9.01707 8.47006C9.12707 8.58006 9.12707 8.80006 9.01707 8.91006C9.12707 9.13006 9.01707 9.35006 8.90707 9.46006C8.79707 9.57006 8.68707 9.79006 8.57707 9.90006C8.35707 10.0101 8.24707 10.2301 8.35707 10.4501C8.79707 11.1101 9.34707 11.7701 9.89707 12.3201C10.5571 12.8701 11.2171 13.3101 11.9871 13.6401C12.2071 13.7501 12.4271 13.7501 12.5371 13.5301C12.6471 13.3101 13.1971 12.7601 13.4171 12.5401C13.6371 12.3201 13.7471 12.3201 13.9671 12.4301L15.7271 13.3101C15.9471 13.4201 16.1671 13.5301 16.2771 13.6401C16.3871 13.9701 16.3871 14.4101 16.1671 14.7401Z" fill="currentColor"/>
</svg>
