<svg width="120" height="120" viewBox="0 0 120 120" fill="none" xmlns="http://www.w3.org/2000/svg">
<g clip-path="url(#clip0_2226_1118)">
<path d="M30.652 16.1078C30.1463 16.192 29.6574 16.1752 29.1853 16.0572C28.7133 15.9393 28.2749 15.7371 27.8872 15.4338C27.4826 15.1305 27.1454 14.7599 26.8588 14.3049C26.5385 13.8163 26.3362 13.3108 26.2519 12.8222C26.1676 12.3336 26.1845 11.8449 26.3025 11.39C26.4205 10.9351 26.6228 10.5139 26.9262 10.1095C27.2297 9.72195 27.6006 9.38497 28.0389 9.09853C28.2749 8.94689 28.4941 8.82894 28.747 8.72785C28.983 8.62675 29.2359 8.55935 29.4719 8.50881C29.7248 8.45826 29.9777 8.42456 30.2305 8.42456C30.4834 8.42456 30.7363 8.44141 30.9892 8.49196L30.9218 9.31757C30.5171 9.21647 30.1125 9.19962 29.6742 9.28387C29.2527 9.36812 28.8481 9.51976 28.4604 9.7725C28.1232 9.99154 27.8366 10.2443 27.6175 10.5307C27.3814 10.834 27.2297 11.1541 27.1454 11.508C27.0611 11.8618 27.0443 12.2493 27.1117 12.6369C27.1791 13.0244 27.3309 13.4288 27.6006 13.8332C27.8535 14.2207 28.1401 14.524 28.4604 14.7599C28.7976 14.9957 29.1516 15.1642 29.5225 15.2485C29.8934 15.3327 30.2643 15.3327 30.652 15.2485C31.0398 15.1811 31.4107 15.0294 31.7815 14.7936C32.203 14.524 32.5233 14.2038 32.7593 13.85C32.9954 13.4793 33.1302 13.1086 33.1808 12.738L33.9395 12.9064C33.872 13.3614 33.7034 13.8332 33.4168 14.2881C33.1302 14.743 32.7256 15.1474 32.1693 15.5012C31.6804 15.8214 31.1746 16.0236 30.6689 16.0909L30.652 16.1078Z" fill="white"/>
<path d="M34.5638 6.58809L32.3215 7.63274L31.9844 6.90823L37.2611 4.44824L37.5983 5.17276L35.3561 6.21741L38.1378 12.1483L37.3623 12.519L34.5806 6.58809H34.5638Z" fill="white"/>
<path d="M38.625 3.95967V3.89227L39.5017 3.60583L43.9018 8.69429V10.0422L38.625 3.95967ZM43.4129 14.1871L44.1209 2.1231L44.947 1.85352V1.92091L44.2389 14.0523L43.4466 14.3051L43.4129 14.1703V14.1871Z" fill="white"/>
<path d="M46.7356 8.10436L54.4906 6.73958L54.9626 9.4186L54.1366 9.57024L53.7994 7.68313L47.6797 8.76148L48.0169 10.6486L47.1908 10.8002L46.7188 8.13806L46.7356 8.10436ZM47.8483 7.11026C47.9157 6.73958 47.9494 6.3352 47.9494 5.89712C47.9494 5.45904 47.9494 5.02096 47.8989 4.54918C47.8483 4.0774 47.7977 3.60563 47.7134 3.117L47.3931 1.33099L52.1472 0.488525L53.3273 7.12711L52.4676 7.27875L51.3717 1.0951L51.8269 1.34783L47.9832 2.0218L48.2697 1.63427L48.5563 3.2181C48.6238 3.62248 48.6912 4.02686 48.7249 4.43124C48.7755 4.83562 48.7924 5.25685 48.7924 5.64438C48.7924 6.04876 48.7755 6.43629 48.7249 6.84067C48.6744 7.2282 48.5901 7.61574 48.4721 7.98642L47.528 8.10436C47.6628 7.80108 47.7808 7.46409 47.8314 7.09341L47.8483 7.11026Z" fill="white"/>
<path d="M55.3359 0.168492H56.1957L56.3643 6.2005L55.9429 6.25105L61.0679 0H61.3882L61.5905 7.3294H60.7307L60.5621 1.21314L61.1353 1.0615L55.8586 7.48104H55.5382L55.3359 0.151643V0.168492Z" fill="white"/>
<path d="M62.9361 7.26202L65.9538 4.3808L66.9316 4.58299L63.897 7.49791L62.9023 7.37996V7.26202H62.9361ZM68.2297 5.20641L66.5607 5.02107C65.6334 4.91998 64.9254 4.65039 64.4365 4.24601C63.9476 3.82478 63.7621 3.23506 63.8464 2.4263C63.9307 1.63438 64.2679 1.07836 64.8579 0.775076C65.4311 0.47179 66.2404 0.370695 67.2519 0.488639L69.6289 0.758226L68.8029 8.05393L67.9262 7.95283L68.2465 5.20641H68.2297ZM68.314 4.43135L68.6511 1.44904L67.2182 1.28055C66.8304 1.23 66.4932 1.21315 66.2066 1.23C65.9032 1.23 65.6503 1.2974 65.4311 1.38165C65.212 1.46589 65.0434 1.60069 64.9254 1.78603C64.8074 1.97137 64.7231 2.20726 64.6894 2.52739C64.6219 3.08342 64.7568 3.4878 65.1108 3.74053C65.4649 3.99327 65.9875 4.16176 66.6955 4.24601L68.2971 4.43135H68.314Z" fill="white"/>
<path d="M75.1772 7.59897L75.2615 7.36308L76.2225 4.53242L76.2562 4.41447L76.9305 2.42627L77.7566 2.71271L77.0823 4.70091L77.0485 4.81886L75.3964 9.67142L74.5703 9.38499L75.1772 7.59897ZM76.2393 5.45913L77.588 5.91405L77.3351 6.63857L75.9864 6.18364L76.2393 5.45913ZM76.9811 6.13309L81.1621 3.8753L82.0724 4.19544L82.0387 4.31338L78.0769 6.40268L80.4203 11.2721L80.3866 11.39L79.4087 11.0531L76.998 6.16679L76.9811 6.13309Z" fill="white"/>
<path d="M82.4234 12.2156C82.103 11.845 81.8839 11.4237 81.7322 10.9688C81.5973 10.5139 81.5467 10.0252 81.5804 9.51976C81.631 9.01429 81.7659 8.52566 82.0188 8.02019C82.2548 7.53156 82.5751 7.12718 82.946 6.79019C83.3169 6.45321 83.7383 6.21732 84.1767 6.06568C84.615 5.91403 85.087 5.86349 85.5759 5.89719C86.0648 5.93088 86.5369 6.06568 86.9921 6.30157C87.4472 6.53746 87.835 6.82389 88.1384 7.19457C88.4588 7.56526 88.6779 7.96964 88.8297 8.40772C88.9645 8.8458 89.032 9.31757 88.9814 9.8062C88.9308 10.2948 88.7959 10.8003 88.5431 11.2889C88.2902 11.7776 87.9867 12.1988 87.599 12.5358C87.2112 12.8728 86.8066 13.1255 86.3683 13.2771C85.93 13.4288 85.4579 13.4962 84.969 13.4793C84.4801 13.4456 84.0081 13.3277 83.5529 13.0918C83.0809 12.8559 82.6931 12.5526 82.3896 12.1819L82.4234 12.2156ZM85.0365 12.7043C85.4073 12.7211 85.7782 12.6706 86.1154 12.5526C86.4526 12.4347 86.7729 12.2325 87.0764 11.9629C87.363 11.6933 87.6158 11.3563 87.8181 10.9519C88.0204 10.5476 88.1385 10.16 88.1722 9.7725C88.2059 9.38497 88.1722 9.01429 88.071 8.6773C87.9699 8.34032 87.7844 8.02019 87.5484 7.73375C87.2955 7.44731 87.0089 7.22827 86.6549 7.04293C86.284 6.85759 85.93 6.75649 85.5591 6.7228C85.1882 6.6891 84.8342 6.73965 84.497 6.85759C84.1598 6.97553 83.8395 7.16088 83.5529 7.43046C83.2663 7.6832 83.0134 8.02019 82.8111 8.42457C82.6088 8.82895 82.4908 9.23333 82.4402 9.62086C82.3896 10.0084 82.4402 10.3959 82.5245 10.7329C82.6257 11.0867 82.7943 11.4069 83.0303 11.6933C83.2663 11.9797 83.5698 12.2156 83.9406 12.401C84.2947 12.5863 84.6656 12.6706 85.0365 12.7043Z" fill="white"/>
<path d="M89.6417 16.31C89.372 15.872 89.2034 15.417 89.1359 14.9453C89.0685 14.4735 89.1022 13.9849 89.2202 13.4962C89.3551 13.0076 89.5743 12.5527 89.8777 12.1146C90.2149 11.6428 90.6026 11.2721 91.0241 11.0026C91.4456 10.733 91.9008 10.5813 92.3728 10.5139C92.8448 10.4465 93.3169 10.4802 93.7889 10.615C94.261 10.7498 94.7162 10.952 95.1376 11.2553C95.3568 11.4069 95.5591 11.5754 95.7445 11.7608C95.93 11.9461 96.0817 12.1483 96.2334 12.3505C96.3683 12.5527 96.5032 12.7886 96.6043 13.0245C96.7055 13.2603 96.7729 13.5131 96.8235 13.7658L96.0311 14.0186C95.9806 13.6142 95.8288 13.2098 95.5928 12.856C95.3568 12.4853 95.0533 12.182 94.6824 11.9124C94.3621 11.6765 94.0249 11.5249 93.6541 11.4069C93.2832 11.3058 92.9291 11.2721 92.5582 11.3395C92.1874 11.3901 91.8333 11.5249 91.4961 11.7271C91.159 11.9293 90.8387 12.2325 90.5689 12.6201C90.2992 12.9908 90.1306 13.3783 90.0294 13.7658C89.9283 14.1702 89.9114 14.5409 89.9789 14.9284C90.0463 15.2991 90.1812 15.6529 90.4003 15.9899C90.6195 16.3269 90.8892 16.6133 91.2433 16.8661C91.6479 17.1525 92.0693 17.3378 92.4908 17.4221C92.9123 17.5063 93.3169 17.4895 93.6709 17.3884L93.8058 18.1466C93.3506 18.2477 92.8617 18.2646 92.3391 18.1803C91.8165 18.0961 91.277 17.8602 90.7375 17.4895C90.2655 17.1525 89.8946 16.765 89.6248 16.3269L89.6417 16.31Z" fill="white"/>
<path d="M99.9597 15.198L100.229 15.4676L98.1053 21.4322L103.989 19.1576L104.242 19.4103L100.01 25.5603L99.4203 24.9705L102.556 20.4886L96.9758 22.6285L96.8746 22.5274L98.8302 16.9672L94.4807 20.0843L93.8906 19.4945L99.9766 15.1812L99.9597 15.198Z" fill="white"/>
<path d="M101.896 27.9024C101.778 27.4306 101.761 26.942 101.829 26.4702C101.896 25.9984 102.065 25.5435 102.334 25.1054C102.604 24.6673 102.975 24.2798 103.447 23.926C103.919 23.5721 104.408 23.3531 104.914 23.252C105.403 23.1509 105.891 23.1341 106.363 23.2352C106.819 23.3194 107.257 23.4879 107.662 23.7575C108.066 24.0102 108.403 24.3304 108.673 24.7179C109.01 25.1897 109.229 25.6446 109.314 26.1164C109.398 26.5881 109.398 27.0431 109.314 27.4812C109.213 27.9192 109.044 28.3068 108.791 28.6774C108.538 29.0313 108.252 29.3514 107.914 29.5873L107.544 29.8569L103.7 24.5831L104.324 24.1282L107.898 29.0313L107.173 29.065L107.409 28.8965C107.695 28.6774 107.948 28.4416 108.134 28.1551C108.319 27.8687 108.454 27.5654 108.521 27.2284C108.589 26.8914 108.589 26.5545 108.521 26.2006C108.454 25.8468 108.285 25.5098 108.032 25.1728C107.813 24.8695 107.527 24.6168 107.223 24.4146C106.92 24.2124 106.566 24.0945 106.195 24.0439C105.824 23.9934 105.453 24.0102 105.082 24.1113C104.711 24.2124 104.34 24.3809 103.986 24.6336C103.616 24.9032 103.329 25.2065 103.127 25.5603C102.907 25.9142 102.773 26.268 102.722 26.6387C102.655 27.0094 102.688 27.3801 102.773 27.7676C102.874 28.1551 103.025 28.4921 103.261 28.8122C103.582 29.2335 103.936 29.5705 104.357 29.7895C104.779 30.0085 105.217 30.1433 105.655 30.177L105.571 30.9521C104.93 30.9015 104.374 30.7331 103.868 30.4298C103.363 30.1265 102.941 29.7221 102.587 29.2503C102.267 28.8291 102.065 28.3742 101.947 27.8855L101.896 27.9024Z" fill="white"/>
<path d="M111.694 31.1878L110.497 29.0142L111.188 28.6267L113.987 33.7152L113.296 34.1027L112.099 31.9292L106.367 35.08L105.945 34.3217L111.677 31.1709L111.694 31.1878Z" fill="white"/>
<path d="M108.691 39.5452C108.708 39.0566 108.826 38.6016 109.011 38.1636C109.213 37.7255 109.5 37.3379 109.871 37.001C110.242 36.664 110.68 36.3775 111.203 36.1922C111.709 35.99 112.214 35.9058 112.703 35.9058C113.209 35.9058 113.664 36.0069 114.102 36.1922C114.541 36.3775 114.912 36.6471 115.249 37.001C115.586 37.3548 115.839 37.7592 116.041 38.2478C116.227 38.7196 116.311 39.1914 116.294 39.68C116.294 40.1686 116.176 40.6235 115.991 41.0448C115.805 41.466 115.519 41.8535 115.165 42.1905C114.811 42.5275 114.372 42.7971 113.85 42.9993C113.327 43.2015 112.821 43.3026 112.315 43.3026C111.81 43.3026 111.338 43.2015 110.899 43.033C110.461 42.8476 110.073 42.5949 109.719 42.2411C109.365 41.8872 109.112 41.4828 108.927 41.0111C108.741 40.5224 108.657 40.0338 108.674 39.562L108.691 39.5452ZM110.309 41.6682C110.579 41.9378 110.882 42.14 111.22 42.2748C111.557 42.4096 111.928 42.4769 112.332 42.4769C112.737 42.4769 113.142 42.3927 113.563 42.2242C113.984 42.0557 114.338 41.8535 114.625 41.5839C114.912 41.3144 115.131 41.0279 115.283 40.7078C115.434 40.3876 115.519 40.0338 115.519 39.6631C115.519 39.2925 115.451 38.9218 115.316 38.5511C115.165 38.1636 114.962 37.8434 114.709 37.5738C114.457 37.3042 114.153 37.1021 113.833 36.9673C113.512 36.8325 113.142 36.7651 112.754 36.7651C112.366 36.7651 111.961 36.8493 111.54 37.0178C111.118 37.1863 110.764 37.4053 110.461 37.6581C110.158 37.9277 109.938 38.2141 109.787 38.5511C109.635 38.8712 109.534 39.2251 109.517 39.6126C109.517 39.9833 109.567 40.3708 109.719 40.7415C109.854 41.1122 110.073 41.4323 110.343 41.685L110.309 41.6682Z" fill="white"/>
<path d="M110.407 44.6842C110.407 44.6842 110.407 44.5831 110.407 44.5662L111.284 44.364C111.284 44.364 111.284 44.4314 111.284 44.482C111.284 44.5157 111.301 44.5662 111.318 44.5999C111.352 44.7179 111.419 44.8358 111.554 44.9537C111.672 45.0717 111.908 45.1559 112.228 45.1896C112.549 45.2402 113.004 45.2402 113.577 45.1896C114.15 45.1391 114.909 45.0043 115.819 44.7853L117.91 44.2966L118.989 48.8965L111.84 50.5645L111.638 49.7052L118.011 48.2225L117.32 45.2907L115.549 45.6951C114.656 45.8973 113.897 46.0321 113.273 46.0658C112.65 46.0995 112.144 46.0658 111.739 45.9816C111.335 45.8805 111.031 45.7457 110.829 45.5603C110.627 45.375 110.475 45.1559 110.424 44.9032C110.407 44.819 110.391 44.7347 110.391 44.6842H110.407Z" fill="white"/>
<path d="M112.484 54.0859C112.636 53.631 112.872 53.2097 113.192 52.8559C113.513 52.5021 113.901 52.1988 114.339 51.9797C114.794 51.7607 115.3 51.6259 115.839 51.5754C116.379 51.5248 116.884 51.5754 117.373 51.727C117.845 51.8786 118.267 52.0977 118.638 52.401C119.009 52.7042 119.295 53.0749 119.514 53.4962C119.734 53.9174 119.868 54.406 119.919 54.9115C119.97 55.417 119.919 55.9056 119.767 56.3605C119.616 56.8155 119.396 57.2367 119.093 57.5905C118.79 57.9443 118.419 58.2308 117.98 58.4667C117.542 58.6857 117.036 58.8205 116.497 58.8711C115.94 58.9216 115.435 58.8711 114.946 58.7194C114.457 58.5678 114.035 58.3487 113.664 58.0454C113.294 57.7422 112.99 57.3883 112.771 56.9502C112.552 56.5122 112.4 56.0572 112.366 55.5518C112.316 55.0294 112.366 54.5408 112.535 54.0859H112.484ZM113.428 56.5796C113.614 56.9165 113.85 57.1861 114.137 57.422C114.423 57.6411 114.76 57.8096 115.148 57.9275C115.536 58.0454 115.94 58.0791 116.396 58.0286C116.851 57.978 117.239 57.8938 117.593 57.7085C117.947 57.54 118.233 57.3209 118.469 57.0513C118.705 56.7818 118.891 56.4616 118.992 56.1078C119.093 55.754 119.144 55.3833 119.11 54.9789C119.076 54.5745 118.975 54.2038 118.806 53.8668C118.638 53.5299 118.419 53.2603 118.132 53.0244C117.845 52.7885 117.525 52.6369 117.154 52.5189C116.783 52.401 116.379 52.3673 115.924 52.4178C115.468 52.4515 115.064 52.5526 114.71 52.7379C114.356 52.9233 114.052 53.1255 113.799 53.3951C113.546 53.6647 113.378 53.9848 113.243 54.3386C113.108 54.6925 113.074 55.08 113.108 55.4844C113.142 55.8719 113.243 56.2426 113.428 56.5796Z" fill="white"/>
<path d="M120 60.9097L119.781 65.5264L118.989 65.4927L119.174 61.7354L112.633 61.4152L112.683 60.5559L120.017 60.9097H120Z" fill="white"/>
<path d="M119.548 67.8011L119.397 68.6435L113.446 67.5652L113.496 67.1439L118.537 73.4287L118.486 73.7488L111.254 72.4346L111.406 71.5921L117.441 72.6873L117.475 73.277L112.282 66.807L112.333 66.4868L119.565 67.8011H119.548Z" fill="white"/>
<path d="M117.761 76.4448L117.474 77.2704L111.742 75.3159L111.843 74.9116L115.906 81.8703L115.805 82.1736L108.859 79.8147L109.146 78.9891L114.962 80.9604L114.912 81.5501L110.731 74.3724L110.832 74.0691L117.778 76.428L117.761 76.4448Z" fill="white"/>
<path d="M89.3526 103.875C89.8584 103.791 90.3473 103.808 90.8193 103.926C91.2914 104.044 91.7297 104.246 92.1343 104.549C92.5389 104.852 92.8761 105.223 93.1627 105.678C93.483 106.167 93.6853 106.672 93.7696 107.161C93.8539 107.649 93.837 108.138 93.719 108.593C93.601 109.048 93.3987 109.469 93.0952 109.873C92.7918 110.261 92.4209 110.598 91.9826 110.884C91.7465 111.036 91.5274 111.154 91.2745 111.255C91.0385 111.356 90.7856 111.424 90.5496 111.474C90.3136 111.525 90.0438 111.558 89.7909 111.558C89.5381 111.558 89.2852 111.542 89.0323 111.491L89.0997 110.665C89.5043 110.766 89.9089 110.783 90.3473 110.699C90.7687 110.615 91.1733 110.463 91.5611 110.21C91.8983 109.991 92.1849 109.739 92.404 109.452C92.6401 109.149 92.7918 108.829 92.8761 108.475C92.9604 108.121 92.9772 107.734 92.9098 107.346C92.8424 106.959 92.6906 106.554 92.4209 106.15C92.168 105.762 91.8814 105.459 91.5611 105.223C91.2239 104.987 90.8699 104.819 90.499 104.734C90.1281 104.65 89.7572 104.65 89.3695 104.734C88.9817 104.802 88.6108 104.954 88.2399 105.189C87.8185 105.459 87.4982 105.779 87.2621 106.133C87.0261 106.504 86.8912 106.874 86.8407 107.245L86.082 107.077C86.1495 106.622 86.318 106.15 86.6046 105.695C86.8912 105.24 87.2959 104.836 87.8522 104.482C88.3411 104.162 88.8469 103.959 89.3526 103.875Z" fill="white"/>
<path d="M85.4412 113.412L87.6834 112.367L88.0206 113.092L82.7438 115.552L82.4067 114.827L84.6489 113.783L81.8672 107.852L82.6427 107.481L85.4244 113.412H85.4412Z" fill="white"/>
<path d="M76.5732 105.813L75.8651 117.877L75.0391 118.147V118.079L75.7471 105.948L76.5395 105.695L76.5732 105.83V105.813ZM81.3611 116.04V116.108L80.4844 116.394L76.0843 111.306V109.958L81.3611 116.04Z" fill="white"/>
<path d="M73.2661 111.896L65.5111 113.26L65.0391 110.598L65.8651 110.447L66.2023 112.334L72.322 111.255L71.9848 109.368L72.8109 109.217L73.283 111.879L73.2661 111.896ZM72.1534 112.89C72.086 113.26 72.0523 113.665 72.0523 114.103C72.0523 114.541 72.0523 114.979 72.1028 115.451C72.1534 115.923 72.204 116.394 72.2883 116.883L72.6086 118.669L67.8545 119.511L66.6743 112.873L67.5341 112.721L68.63 118.905L68.1748 118.652L72.0186 117.978L71.7319 118.366L71.4454 116.782C71.3779 116.377 71.3105 115.973 71.2768 115.569C71.2262 115.164 71.2093 114.743 71.2093 114.356C71.2093 113.951 71.2262 113.564 71.2768 113.159C71.3273 112.772 71.4116 112.384 71.5296 112.014L72.4737 111.896C72.3389 112.199 72.2209 112.536 72.1703 112.907L72.1534 112.89Z" fill="white"/>
<path d="M64.6686 119.832H63.8088L63.6402 113.8L64.0617 113.749L58.9367 119.966H58.6164L58.4141 112.637H59.2739L59.4424 118.753L58.8692 118.905L64.146 112.485H64.4663L64.6686 119.815V119.832Z" fill="white"/>
<path d="M51.7743 114.777L53.4433 114.962C54.3705 115.063 55.0786 115.333 55.5675 115.737C56.0564 116.158 56.2418 116.748 56.1575 117.557C56.0732 118.349 55.7361 118.905 55.146 119.208C54.5728 119.511 53.7636 119.612 52.7521 119.494L50.375 119.225L51.2011 111.929L52.0777 112.03L51.7574 114.777H51.7743ZM51.69 115.552L51.3528 118.534L52.7858 118.703C53.1735 118.753 53.5107 118.77 53.7973 118.753C54.1008 118.753 54.3536 118.686 54.5728 118.601C54.792 118.517 54.9606 118.382 55.0786 118.197C55.1966 118.012 55.2809 117.776 55.3146 117.456C55.382 116.9 55.2472 116.495 54.8931 116.243C54.5391 115.99 54.0165 115.821 53.3084 115.737L51.7068 115.552H51.69ZM57.0679 112.721L54.0502 115.602L53.0724 115.4L56.1069 112.485L57.1016 112.603V112.721H57.0679Z" fill="white"/>
<path d="M43.0405 113.867L38.8596 116.125L37.9492 115.804L37.9829 115.687L41.9447 113.597L39.6014 108.728L39.6351 108.61L40.6129 108.947L43.0237 113.833L43.0405 113.867ZM44.8276 112.401L44.7433 112.637L43.7823 115.467L43.7486 115.585L43.0743 117.574L42.2482 117.287L42.9225 115.299L42.9562 115.181L44.6084 110.328L45.4345 110.615L44.8276 112.401ZM43.7655 114.541L42.4168 114.086L42.6696 113.361L44.0183 113.816L43.7655 114.541Z" fill="white"/>
<path d="M37.577 107.784C37.8973 108.155 38.1165 108.576 38.2682 109.031C38.4031 109.486 38.4536 109.975 38.4199 110.48C38.3693 110.986 38.2345 111.474 37.9816 111.98C37.7287 112.468 37.4253 112.873 37.0544 113.21C36.6835 113.547 36.262 113.783 35.8237 113.934C35.3854 114.086 34.9133 114.136 34.4244 114.103C33.9355 114.069 33.4635 113.934 33.0083 113.698C32.5531 113.463 32.1654 113.176 31.8619 112.805C31.5416 112.435 31.3224 112.03 31.1707 111.592C31.019 111.154 30.9684 110.682 31.019 110.194C31.0527 109.705 31.2044 109.2 31.4573 108.711C31.7102 108.222 32.0136 107.801 32.4014 107.464C32.7891 107.127 33.1937 106.874 33.6321 106.723C34.0872 106.554 34.5424 106.504 35.0313 106.521C35.5202 106.554 35.9923 106.672 36.4475 106.908C36.9195 107.144 37.3072 107.447 37.6107 107.818L37.577 107.784ZM34.9639 107.296C34.593 107.279 34.2221 107.329 33.8849 107.447C33.5478 107.565 33.2275 107.767 32.924 108.037C32.6374 108.307 32.3845 108.644 32.1822 109.048C31.9799 109.452 31.8619 109.84 31.8282 110.227C31.7945 110.615 31.8282 110.986 31.9293 111.323C32.0305 111.66 32.2159 111.98 32.452 112.266C32.7048 112.553 32.9914 112.772 33.3455 112.957C33.7164 113.142 34.0704 113.243 34.4413 113.277C34.8122 113.311 35.1662 113.26 35.5034 113.142C35.8405 113.024 36.1609 112.839 36.4475 112.57C36.7341 112.317 36.9869 111.98 37.1892 111.575C37.3915 111.171 37.5096 110.767 37.5601 110.379C37.6107 109.992 37.5601 109.604 37.4758 109.267C37.3747 108.913 37.2061 108.593 36.9701 108.307C36.7341 108.02 36.4306 107.784 36.0597 107.599C35.7057 107.414 35.3348 107.329 34.9639 107.313V107.296Z" fill="white"/>
<path d="M30.3615 103.69C30.6312 104.128 30.7998 104.583 30.8672 105.055C30.9347 105.526 30.901 106.015 30.7829 106.504C30.6649 106.992 30.4289 107.447 30.1255 107.885C29.7883 108.357 29.4005 108.728 28.9791 108.997C28.5576 109.267 28.1024 109.419 27.6304 109.486C27.1583 109.553 26.6863 109.52 26.2142 109.385C25.7422 109.25 25.287 109.048 24.8656 108.745C24.6464 108.593 24.4441 108.424 24.2586 108.239C24.0732 108.054 23.9215 107.852 23.7697 107.649C23.6349 107.43 23.5 107.211 23.3989 106.975C23.2977 106.74 23.2303 106.487 23.1797 106.234L23.972 105.981C24.0226 106.403 24.1743 106.79 24.4104 107.144C24.6464 107.498 24.9498 107.818 25.3207 108.087C25.6411 108.323 25.9782 108.475 26.3491 108.593C26.72 108.694 27.074 108.728 27.4449 108.66C27.8158 108.61 28.1699 108.475 28.507 108.273C28.8442 108.071 29.1645 107.767 29.4343 107.38C29.704 107.009 29.8726 106.622 29.9737 106.234C30.0749 105.83 30.0917 105.459 30.0243 105.071C29.9569 104.701 29.822 104.347 29.6028 104.01C29.3837 103.673 29.1139 103.387 28.7599 103.134C28.3553 102.847 27.9338 102.662 27.5124 102.578C27.0909 102.494 26.6863 102.51 26.3323 102.611L26.1974 101.853C26.6526 101.752 27.1415 101.735 27.6641 101.82C28.1867 101.904 28.7262 102.14 29.2657 102.51C29.7377 102.847 30.1086 103.235 30.3783 103.673L30.3615 103.69Z" fill="white"/>
<path d="M20.0477 104.802L19.778 104.532L21.9022 98.5678L16.0185 100.842L15.7656 100.59L19.9971 94.4397L20.5872 95.0294L17.4515 99.5113L23.0317 97.3715L23.1329 97.4726L21.1773 103.033L25.5268 99.9157L26.1168 100.505L20.0309 104.819L20.0477 104.802Z" fill="white"/>
<path d="M18.106 92.0978C18.224 92.5696 18.2409 93.0582 18.1735 93.53C18.106 94.0018 17.9374 94.4567 17.6677 94.8948C17.398 95.3328 17.0271 95.7204 16.555 96.0742C16.083 96.428 15.5941 96.6471 15.0883 96.7482C14.5994 96.8493 14.1105 96.8661 13.6385 96.765C13.1833 96.6808 12.745 96.5123 12.3404 96.2427C11.9358 95.99 11.5986 95.6698 11.3288 95.2823C10.9917 94.8105 10.7725 94.3556 10.6882 93.8838C10.6039 93.412 10.6039 92.9571 10.6882 92.519C10.7894 92.081 10.958 91.6934 11.2108 91.3227C11.4637 90.9689 11.7503 90.6488 12.0875 90.4129L12.4584 90.1433L16.3022 95.4171L15.6784 95.872L12.1043 90.9689L12.8293 90.9352L12.5932 91.1037C12.3067 91.3227 12.0538 91.5586 11.8683 91.8451C11.6829 92.1315 11.548 92.4348 11.4806 92.7718C11.4131 93.1088 11.4131 93.4457 11.4806 93.7996C11.548 94.1534 11.7166 94.4904 11.9695 94.8274C12.1886 95.1307 12.4752 95.3834 12.7787 95.5856C13.099 95.7878 13.4362 95.9057 13.8071 95.9563C14.178 96.0068 14.5489 95.99 14.9197 95.8889C15.2906 95.7878 15.6615 95.6193 16.0156 95.3665C16.3864 95.097 16.673 94.7937 16.8754 94.4398C17.0945 94.086 17.2294 93.7322 17.28 93.3615C17.3474 92.9908 17.3137 92.6201 17.2294 92.2326C17.1282 91.8451 16.9765 91.5081 16.7405 91.1879C16.4202 90.7667 16.0661 90.4297 15.6447 90.2107C15.2232 89.9917 14.7849 89.8569 14.3466 89.8232L14.4308 89.0481C15.0715 89.0986 15.6278 89.2671 16.1336 89.5704C16.6393 89.8737 17.0608 90.2781 17.4148 90.7499C17.7351 91.1711 17.9374 91.626 18.0555 92.1146L18.106 92.0978Z" fill="white"/>
<path d="M8.31231 88.8121L9.50928 90.9856L8.81807 91.3732L6.01953 86.2847L6.71074 85.8972L7.9077 88.0707L13.6397 84.9199L14.0611 85.6781L8.32917 88.8289L8.31231 88.8121Z" fill="white"/>
<path d="M11.3163 80.4549C11.2994 80.9435 11.1814 81.3984 10.996 81.8365C10.7937 82.2746 10.5071 82.6621 10.1362 82.9991C9.76531 83.3361 9.32698 83.6225 8.80436 83.8079C8.2986 84.0101 7.79284 84.0943 7.30394 84.0943C6.79818 84.0943 6.343 83.9932 5.90467 83.8079C5.46635 83.6225 5.09546 83.3529 4.75828 82.9991C4.42111 82.6453 4.16823 82.2409 3.96592 81.7523C3.78048 81.2805 3.69619 80.8087 3.71304 80.3201C3.71304 79.8315 3.83106 79.3765 4.0165 78.9553C4.20195 78.5341 4.48854 78.1465 4.84258 77.8096C5.19661 77.4726 5.63493 77.203 6.15755 77.0008C6.68017 76.7986 7.18593 76.6975 7.69169 76.6975C8.19745 76.6975 8.66949 76.7986 9.10782 76.9671C9.54614 77.1524 9.93389 77.4052 10.2879 77.759C10.642 78.1128 10.8948 78.5172 11.0803 78.989C11.2657 79.4776 11.35 79.9663 11.3332 80.438L11.3163 80.4549ZM9.69787 78.3319C9.42813 78.0623 9.12468 77.8601 8.7875 77.7253C8.45033 77.5905 8.07944 77.5231 7.67483 77.5231C7.27022 77.5231 6.86562 77.6074 6.44415 77.7759C6.02268 77.9443 5.66865 78.1465 5.38205 78.4161C5.09546 78.6857 4.87629 78.9722 4.72456 79.2923C4.57284 79.6124 4.48854 79.9663 4.48854 80.3369C4.48854 80.7076 4.55598 81.0783 4.69085 81.449C4.84258 81.8365 5.04488 82.1566 5.29776 82.4262C5.55064 82.6958 5.8541 82.898 6.17441 83.0328C6.49473 83.1676 6.86562 83.235 7.25337 83.235C7.64112 83.235 8.04572 83.1508 8.46719 82.9823C8.88866 82.8138 9.24269 82.5947 9.54614 82.342C9.8496 82.0724 10.0688 81.786 10.2205 81.449C10.3722 81.1288 10.4734 80.775 10.4902 80.3875C10.4902 80.0168 10.4397 79.6293 10.2879 79.2586C10.1531 78.8879 9.93389 78.5678 9.66416 78.315L9.69787 78.3319Z" fill="white"/>
<path d="M9.59669 75.3159C9.59669 75.3159 9.59669 75.417 9.59669 75.4339L8.72004 75.6361C8.72004 75.6361 8.72004 75.5687 8.72004 75.5181C8.72004 75.4844 8.70318 75.4339 8.68632 75.4002C8.6526 75.2822 8.58517 75.1643 8.4503 75.0463C8.33229 74.9284 8.09627 74.8441 7.77595 74.8104C7.45564 74.7599 7.00045 74.7599 6.42726 74.8104C5.85406 74.861 5.09542 74.9958 4.18505 75.2148L2.09458 75.7034L1.01562 71.1036L8.1637 69.4355L8.366 70.2949L1.99343 71.7776L2.68463 74.7093L4.45479 74.305C5.3483 74.1028 6.10694 73.968 6.73071 73.9343C7.35448 73.9006 7.86024 73.9343 8.26485 74.0185C8.66946 74.1196 8.97292 74.2544 9.17522 74.4398C9.37752 74.6251 9.52925 74.8441 9.57983 75.0969C9.59669 75.1811 9.61354 75.2654 9.61354 75.3159H9.59669Z" fill="white"/>
<path d="M7.52005 65.8971C7.36832 66.3521 7.1323 66.7733 6.81198 67.1271C6.49167 67.481 6.10392 67.7843 5.66559 68.0033C5.21041 68.2223 4.70465 68.3571 4.16517 68.4077C3.62569 68.4582 3.11993 68.4077 2.63103 68.256C2.15899 68.1044 1.73752 67.8854 1.36663 67.5821C0.99574 67.2788 0.709143 66.9081 0.48998 66.4869C0.270818 66.0656 0.135948 65.577 0.0853723 65.0715C0.0347962 64.5661 0.0853722 64.0774 0.2371 63.6225C0.388828 63.1676 0.607991 62.7463 0.911447 62.3925C1.2149 62.0387 1.58579 61.7522 2.02412 61.5164C2.46244 61.2973 2.9682 61.1625 3.50768 61.112C4.06402 61.0614 4.56978 61.112 5.05868 61.2636C5.54758 61.4153 5.96905 61.6343 6.33994 61.9376C6.71083 62.2409 7.01429 62.5947 7.23345 63.0328C7.45261 63.4709 7.60434 63.9258 7.63806 64.4313C7.68863 64.9536 7.63806 65.4422 7.46947 65.8971H7.52005ZM6.57596 63.4035C6.39051 63.0665 6.15449 62.7969 5.8679 62.561C5.5813 62.342 5.24413 62.1735 4.85638 62.0555C4.46863 61.9376 4.06402 61.9039 3.60883 61.9544C3.15365 62.005 2.7659 62.0892 2.41187 62.2746C2.05784 62.4431 1.77124 62.6621 1.53522 62.9317C1.2992 63.2013 1.11375 63.5214 1.0126 63.8752C0.911447 64.2291 0.860871 64.5998 0.894588 65.0041C0.928306 65.4085 1.02946 65.7792 1.19804 66.1162C1.36663 66.4532 1.58579 66.7228 1.87239 66.9586C2.15899 67.1945 2.4793 67.3462 2.85019 67.4641C3.22108 67.5821 3.62569 67.6158 4.08088 67.5652C4.53606 67.5315 4.94067 67.4304 5.2947 67.2451C5.64873 67.0597 5.95219 66.8575 6.20507 66.588C6.45795 66.3184 6.62654 65.9982 6.76141 65.6444C6.89628 65.2906 6.92999 64.903 6.89627 64.4987C6.86256 64.1111 6.76141 63.7404 6.57596 63.4035Z" fill="white"/>
<path d="M0.00123367 59.0732L0.220396 54.4565L1.01275 54.4902L0.827308 58.2476L7.36847 58.5677L7.3179 59.4271L-0.015625 59.0732H0.00123367Z" fill="white"/>
<path d="M0.458265 52.1819L0.609993 51.3394L6.5611 52.4178L6.51053 52.839L1.46978 46.5543L1.52036 46.2341L8.75273 47.5484L8.601 48.3908L2.5656 47.2956L2.53188 46.7059L7.72435 53.176L7.67377 53.4961L0.441406 52.1819H0.458265Z" fill="white"/>
<path d="M2.24342 43.5551L2.53002 42.7295L8.26197 44.684L8.16081 45.0884L4.09787 38.1297L4.19903 37.8264L11.1448 40.1853L10.8582 41.0109L5.04196 39.0396L5.09254 38.4498L9.27349 45.6276L9.17233 45.9309L2.22656 43.572L2.24342 43.5551Z" fill="white"/>
<path d="M62.1396 59.4776C62.2239 59.427 62.325 59.3765 62.4093 59.326C64.3818 58.2981 66.4217 57.422 68.5964 56.8323C71.0072 56.2257 72.4571 53.7826 71.8502 51.3731C70.6532 46.8575 64.3143 46.9249 63.1342 51.3731C62.5442 53.5467 61.6844 55.5854 60.656 57.5568C60.6054 57.641 60.5717 57.7253 60.5211 57.8095L62.5779 45.2906L59.9985 36.866L57.4191 45.2906L59.4759 57.8601C59.4253 57.759 59.3579 57.6579 59.3073 57.5568C58.2789 55.5854 57.4023 53.5467 56.8122 51.3731C56.2053 48.9637 53.7608 47.5147 51.35 48.1212C46.8319 49.3175 46.8993 55.6528 51.35 56.8323C53.5248 57.422 55.5647 58.2813 57.5371 59.3091C57.6383 59.3597 57.7226 59.4102 57.8237 59.4607L45.2809 57.4051L36.8516 59.9831L45.2809 62.561L57.8237 60.5054C57.7226 60.5559 57.6383 60.6065 57.5371 60.657C55.5647 61.6848 53.5248 62.561 51.35 63.1339C46.8993 64.2965 46.8319 70.6318 51.35 71.8449C53.7608 72.4515 56.2053 71.0024 56.8122 68.593C57.4023 66.4195 58.2621 64.3807 59.3073 62.4094C59.3579 62.3083 59.4253 62.2072 59.4759 62.1061L57.4191 74.6756L59.9985 83.1002L62.5779 74.6756L60.5211 62.1566C60.5211 62.1566 60.6054 62.3251 60.656 62.4094C61.6844 64.3807 62.561 66.4195 63.1342 68.593C64.2975 73.0412 70.6363 73.1086 71.8502 68.593C72.4571 66.1836 71.0072 63.7404 68.5964 63.1339C66.4217 62.5442 64.3818 61.6848 62.4093 60.6402C62.325 60.5896 62.2239 60.5391 62.1396 60.4886L74.6993 62.5441L83.1286 59.9662L74.6993 57.3883L62.1396 59.4439V59.4776Z" fill="white"/>
</g>
<defs>
<clipPath id="clip0_2226_1118">
<rect width="120" height="120" fill="white"/>
</clipPath>
</defs>
</svg>
