<svg width="260" height="260" viewBox="0 0 260 260" fill="none" xmlns="http://www.w3.org/2000/svg">
<g clip-path="url(#clip0_2226_686)">
<path d="M66.4055 34.9002C65.3097 35.0827 64.2504 35.0462 63.2277 34.7907C62.2049 34.5351 61.2552 34.097 60.4151 33.4399C59.5384 32.7828 58.8079 31.9797 58.1869 30.994C57.4929 29.9353 57.0546 28.8401 56.872 27.7814C56.6893 26.7227 56.7259 25.664 56.9815 24.6783C57.2372 23.6927 57.6756 22.78 58.333 21.9038C58.9905 21.0642 59.7941 20.3341 60.7438 19.7134C61.2552 19.3849 61.7301 19.1293 62.278 18.9103C62.7893 18.6913 63.3373 18.5452 63.8486 18.4357C64.3965 18.3262 64.9445 18.2532 65.4924 18.2532C66.0403 18.2532 66.5882 18.2897 67.1361 18.3992L66.99 20.188C66.1133 19.969 65.2367 19.9325 64.287 20.115C63.3738 20.2975 62.4971 20.6261 61.657 21.1737C60.9265 21.6483 60.3055 22.1959 59.8307 22.8165C59.3193 23.4736 58.9905 24.1672 58.8079 24.9339C58.6253 25.7005 58.5887 26.5402 58.7348 27.3798C58.881 28.2195 59.2097 29.0956 59.7941 29.9718C60.342 30.8114 60.963 31.4686 61.657 31.9797C62.3876 32.4907 63.1546 32.8558 63.9582 33.0383C64.7618 33.2209 65.5654 33.2209 66.4055 33.0383C67.2457 32.8923 68.0493 32.5638 68.8529 32.0527C69.766 31.4686 70.46 30.7749 70.9714 30.0083C71.4828 29.2052 71.775 28.402 71.8846 27.5989L73.5283 27.9639C73.3822 28.9496 73.0169 29.9718 72.396 30.9575C71.775 31.9431 70.8984 32.8193 69.693 33.5859C68.6337 34.2796 67.5379 34.7177 66.4421 34.8637L66.4055 34.9002Z" fill="#EF4D30"/>
<path d="M74.8816 14.2743L70.0235 16.5377L69.293 14.9679L80.726 9.63794L81.4565 11.2077L76.5984 13.4711L82.6254 26.3215L80.9451 27.1246L74.9181 14.2743H74.8816Z" fill="#EF4D30"/>
<path d="M83.6836 8.57895V8.43292L85.583 7.81231L95.1166 18.8373V21.7578L83.6836 8.57895ZM94.0573 30.7385L95.5914 4.59973L97.3813 4.01562V4.16165L95.8471 30.4464L94.1303 30.994L94.0573 30.7019V30.7385Z" fill="#EF4D30"/>
<path d="M101.255 17.5598L118.058 14.6028L119.081 20.4073L117.291 20.7359L116.56 16.6472L103.301 18.9836L104.031 23.0723L102.242 23.4009L101.219 17.6328L101.255 17.5598ZM103.666 15.4059C103.812 14.6028 103.885 13.7266 103.885 12.7775C103.885 11.8283 103.885 10.8791 103.776 9.85693C103.666 8.83474 103.556 7.81256 103.374 6.75387L102.68 2.88417L112.98 1.05884L115.537 15.4424L113.675 15.771L111.3 2.37308L112.286 2.92067L103.958 4.38094L104.579 3.54129L105.2 6.97291C105.346 7.84906 105.492 8.72522 105.565 9.60138C105.675 10.4775 105.712 11.3902 105.712 12.2299C105.712 13.106 105.675 13.9457 105.565 14.8218C105.456 15.6615 105.273 16.5011 105.018 17.3043L102.972 17.5598C103.264 16.9027 103.52 16.1726 103.63 15.3694L103.666 15.4059Z" fill="#EF4D30"/>
<path d="M119.883 0.365066H121.746L122.111 13.4344L121.198 13.5439L132.302 0H132.996L133.434 15.8804H131.571L131.206 2.62847L132.448 2.29992L121.015 16.2089H120.321L119.883 0.328559V0.365066Z" fill="#EF4D30"/>
<path d="M136.354 15.7344L142.893 9.49178L145.011 9.92986L138.436 16.2455L136.281 15.99V15.7344H136.354ZM147.824 11.2806L144.208 10.879C142.199 10.66 140.665 10.0759 139.605 9.19973C138.546 8.28707 138.144 7.00933 138.327 5.25702C138.509 3.54121 139.24 2.33649 140.518 1.67937C141.76 1.02225 143.514 0.803213 145.705 1.05876L150.856 1.64286L149.066 17.4502L147.166 17.2312L147.86 11.2806H147.824ZM148.006 9.6013L148.737 3.13964L145.632 2.77457C144.792 2.66505 144.062 2.62854 143.441 2.66505C142.783 2.66505 142.235 2.81108 141.76 2.99361C141.285 3.17614 140.92 3.46819 140.664 3.86977C140.409 4.27134 140.226 4.78243 140.153 5.47606C140.007 6.68077 140.299 7.55693 141.066 8.10453C141.833 8.65213 142.966 9.0172 144.5 9.19973L147.97 9.6013H148.006Z" fill="#EF4D30"/>
<path d="M162.874 16.4644L163.056 15.9533L165.138 9.82016L165.211 9.56461L166.672 5.25684L168.462 5.87745L167.001 10.1852L166.928 10.4408L163.348 20.9547L161.559 20.3341L162.874 16.4644ZM165.175 11.828L168.097 12.8137L167.549 14.3835L164.627 13.3978L165.175 11.828ZM166.782 13.2883L175.841 8.3964L177.813 9.09003L177.74 9.34557L169.156 13.8724L174.234 24.4228L174.16 24.6783L172.042 23.9482L166.818 13.3613L166.782 13.2883Z" fill="#EF4D30"/>
<path d="M178.583 26.4672C177.889 25.6641 177.414 24.7514 177.085 23.7657C176.793 22.78 176.683 21.7214 176.756 20.6262C176.866 19.531 177.158 18.4723 177.706 17.3771C178.217 16.3184 178.911 15.4422 179.715 14.7121C180.519 13.982 181.432 13.4709 182.381 13.1423C183.331 12.8137 184.354 12.7042 185.413 12.7772C186.473 12.8502 187.495 13.1423 188.481 13.6534C189.468 14.1645 190.308 14.7851 190.965 15.5882C191.659 16.3914 192.134 17.2675 192.463 18.2167C192.755 19.1659 192.901 20.1881 192.792 21.2468C192.682 22.3055 192.39 23.4007 191.842 24.4593C191.294 25.518 190.637 26.4307 189.796 27.1608C188.956 27.891 188.08 28.4386 187.13 28.7671C186.18 29.0957 185.158 29.2417 184.098 29.2052C183.039 29.1322 182.016 28.8766 181.03 28.3656C180.007 27.8545 179.167 27.1973 178.51 26.3942L178.583 26.4672ZM184.244 27.5259C185.048 27.5624 185.852 27.4529 186.582 27.1973C187.313 26.9418 188.007 26.5037 188.664 25.9196C189.285 25.3355 189.833 24.6054 190.271 23.7292C190.71 22.8531 190.965 22.0134 191.038 21.1738C191.111 20.3341 191.038 19.531 190.819 18.8008C190.6 18.0707 190.198 17.3771 189.687 16.7565C189.139 16.1358 188.518 15.6613 187.751 15.2597C186.947 14.8581 186.18 14.6391 185.377 14.5661C184.573 14.493 183.806 14.6026 183.075 14.8581C182.345 15.1137 181.651 15.5152 181.03 16.0993C180.409 16.6469 179.861 17.3771 179.423 18.2532C178.984 19.1294 178.729 20.0055 178.619 20.8452C178.51 21.6848 178.619 22.5245 178.802 23.2546C179.021 24.0213 179.386 24.7149 179.898 25.3355C180.409 25.9561 181.066 26.4672 181.87 26.8688C182.637 27.2704 183.441 27.4529 184.244 27.5259Z" fill="#EF4D30"/>
<path d="M194.213 35.3383C193.629 34.3891 193.264 33.4035 193.117 32.3813C192.971 31.3591 193.044 30.3004 193.3 29.2417C193.592 28.183 194.067 27.1973 194.725 26.2482C195.455 25.226 196.295 24.4228 197.208 23.8387C198.122 23.2546 199.108 22.9261 200.131 22.78C201.153 22.634 202.176 22.707 203.199 22.9991C204.222 23.2911 205.208 23.7292 206.121 24.3863C206.596 24.7149 207.034 25.08 207.436 25.4815C207.838 25.8831 208.167 26.3212 208.495 26.7593C208.788 27.1973 209.08 27.7084 209.299 28.2195C209.518 28.7306 209.664 29.2782 209.774 29.8258L208.057 30.3734C207.947 29.4973 207.619 28.6211 207.107 27.8545C206.596 27.0513 205.938 26.3942 205.135 25.8101C204.441 25.299 203.71 24.9704 202.907 24.7149C202.103 24.4959 201.336 24.4228 200.532 24.5689C199.729 24.6784 198.962 24.9704 198.231 25.4085C197.501 25.8466 196.807 26.5037 196.222 27.3434C195.638 28.1465 195.273 28.9862 195.053 29.8258C194.834 30.702 194.798 31.5051 194.944 32.3448C195.09 33.1479 195.382 33.9146 195.857 34.6447C196.332 35.3748 196.916 35.9954 197.683 36.543C198.56 37.1636 199.473 37.5652 200.386 37.7478C201.3 37.9303 202.176 37.8938 202.943 37.6747L203.235 39.3175C202.249 39.5366 201.19 39.5731 200.058 39.3905C198.925 39.208 197.756 38.6969 196.588 37.8938C195.565 37.1636 194.761 36.324 194.177 35.3748L194.213 35.3383Z" fill="#EF4D30"/>
<path d="M216.568 32.9288L217.152 33.5129L212.55 46.4363L225.298 41.5079L225.846 42.0555L216.677 55.3804L215.399 54.1027L222.193 44.3919L210.102 49.0282L209.883 48.8092L214.12 36.762L204.696 43.5158L203.418 42.238L216.604 32.8923L216.568 32.9288Z" fill="#EF4D30"/>
<path d="M220.767 60.4548C220.511 59.4326 220.475 58.3739 220.621 57.3517C220.767 56.3296 221.132 55.3439 221.716 54.3947C222.301 53.4455 223.104 52.6059 224.127 51.8392C225.15 51.0726 226.209 50.598 227.305 50.379C228.364 50.1599 229.424 50.1234 230.446 50.3425C231.433 50.525 232.382 50.8901 233.259 51.4742C234.136 52.0218 234.866 52.7154 235.451 53.5551C236.181 54.5772 236.656 55.5629 236.839 56.5851C237.021 57.6073 237.021 58.593 236.839 59.5421C236.619 60.4913 236.254 61.331 235.706 62.1341C235.158 62.9007 234.537 63.5944 233.807 64.1055L233.003 64.6896L224.675 53.263L226.027 52.2773L233.77 62.9007L232.2 62.9738L232.711 62.6087C233.332 62.1341 233.88 61.623 234.282 61.0024C234.684 60.3818 234.976 59.7247 235.122 58.9945C235.268 58.2644 235.268 57.5343 235.122 56.7676C234.976 56.001 234.611 55.2709 234.063 54.5407C233.588 53.8836 232.967 53.336 232.309 52.8979C231.652 52.4599 230.885 52.2043 230.081 52.0948C229.278 51.9853 228.474 52.0218 227.67 52.2408C226.867 52.4599 226.063 52.8249 225.296 53.3725C224.492 53.9566 223.872 54.6137 223.433 55.3804C222.958 56.147 222.666 56.9137 222.557 57.7168C222.41 58.52 222.483 59.3231 222.666 60.1627C222.885 61.0024 223.214 61.7325 223.725 62.4262C224.419 63.3388 225.187 64.069 226.1 64.5435C227.013 65.0181 227.963 65.3102 228.912 65.3832L228.73 67.0625C227.342 66.953 226.136 66.5879 225.04 65.9308C223.945 65.2737 223.031 64.3975 222.264 63.3753C221.57 62.4627 221.132 61.477 220.876 60.4183L220.767 60.4548Z" fill="#EF4D30"/>
<path d="M241.991 67.5739L239.397 62.8646L240.895 62.0249L246.959 73.0499L245.461 73.8895L242.868 69.1802L230.448 76.0069L229.535 74.3641L241.954 67.5374L241.991 67.5739Z" fill="#EF4D30"/>
<path d="M235.49 85.6808C235.527 84.6221 235.783 83.6365 236.184 82.6873C236.623 81.7381 237.244 80.8985 238.047 80.1683C238.851 79.4382 239.801 78.8176 240.933 78.416C242.029 77.9779 243.124 77.7954 244.184 77.7954C245.28 77.7954 246.266 78.0145 247.216 78.416C248.165 78.8176 248.969 79.4017 249.699 80.1683C250.43 80.935 250.978 81.8111 251.416 82.8698C251.818 83.892 252.001 84.9142 251.964 85.9729C251.964 87.0316 251.708 88.0173 251.307 88.9299C250.905 89.8426 250.284 90.6822 249.517 91.4124C248.75 92.1425 247.8 92.7266 246.668 93.1647C245.535 93.6028 244.439 93.8218 243.344 93.8218C242.248 93.8218 241.225 93.6028 240.275 93.2377C239.326 92.8361 238.486 92.2885 237.718 91.5219C236.951 90.7553 236.403 89.8791 236.002 88.8569C235.6 87.7982 235.417 86.7395 235.454 85.7173L235.49 85.6808ZM238.997 90.2807C239.581 90.8648 240.239 91.3029 240.969 91.5949C241.7 91.887 242.504 92.033 243.38 92.033C244.257 92.033 245.133 91.8505 246.047 91.4854C246.96 91.1203 247.727 90.6822 248.348 90.0981C248.969 89.514 249.444 88.8934 249.772 88.1998C250.101 87.5062 250.284 86.7395 250.284 85.9364C250.284 85.1332 250.138 84.3301 249.845 83.5269C249.517 82.6873 249.078 81.9937 248.53 81.4096C247.983 80.8255 247.325 80.3874 246.631 80.0953C245.937 79.8033 245.133 79.6572 244.293 79.6572C243.453 79.6572 242.577 79.8398 241.663 80.2048C240.75 80.5699 239.983 81.0445 239.326 81.5921C238.668 82.1762 238.193 82.7968 237.865 83.5269C237.536 84.2206 237.317 84.9872 237.28 85.8269C237.28 86.63 237.39 87.4697 237.718 88.2728C238.011 89.076 238.486 89.7696 239.07 90.3172L238.997 90.2807Z" fill="#EF4D30"/>
<path d="M239.212 96.8155C239.212 96.8155 239.212 96.5964 239.212 96.5599L241.112 96.1219C241.112 96.1219 241.112 96.2679 241.112 96.3774C241.112 96.4504 241.148 96.5599 241.185 96.6329C241.258 96.8885 241.404 97.144 241.696 97.3996C241.952 97.6551 242.463 97.8377 243.157 97.9107C243.851 98.0202 244.837 98.0202 246.079 97.9107C247.321 97.8012 248.965 97.5091 250.937 97.0345L255.467 95.9758L257.805 105.942L242.317 109.556L241.879 107.694L255.686 104.482L254.188 98.1297L250.353 99.0059C248.417 99.444 246.773 99.736 245.422 99.809C244.07 99.882 242.975 99.809 242.098 99.6265C241.221 99.4075 240.564 99.1154 240.125 98.7138C239.687 98.3123 239.358 97.8377 239.249 97.2901C239.212 97.1075 239.176 96.925 239.176 96.8155H239.212Z" fill="#EF4D30"/>
<path d="M243.71 117.186C244.039 116.2 244.55 115.288 245.244 114.521C245.938 113.754 246.779 113.097 247.728 112.623C248.715 112.148 249.81 111.856 250.979 111.747C252.148 111.637 253.244 111.747 254.303 112.075C255.326 112.404 256.239 112.878 257.043 113.535C257.846 114.193 258.467 114.996 258.942 115.908C259.417 116.821 259.709 117.88 259.819 118.975C259.928 120.07 259.819 121.129 259.49 122.115C259.161 123.1 258.686 124.013 258.029 124.779C257.371 125.546 256.568 126.167 255.618 126.678C254.668 127.152 253.573 127.444 252.404 127.554C251.198 127.664 250.103 127.554 249.043 127.225C247.984 126.897 247.071 126.422 246.267 125.765C245.464 125.108 244.806 124.341 244.331 123.392C243.856 122.443 243.528 121.457 243.455 120.362C243.345 119.23 243.455 118.172 243.82 117.186H243.71ZM245.756 122.589C246.158 123.319 246.669 123.903 247.29 124.414C247.911 124.889 248.641 125.254 249.482 125.51C250.322 125.765 251.198 125.838 252.185 125.729C253.171 125.619 254.011 125.437 254.778 125.035C255.545 124.67 256.166 124.195 256.677 123.611C257.189 123.027 257.591 122.334 257.81 121.567C258.029 120.8 258.139 119.997 258.065 119.121C257.992 118.245 257.773 117.442 257.408 116.712C257.043 115.981 256.568 115.397 255.947 114.886C255.326 114.375 254.632 114.047 253.828 113.791C253.025 113.535 252.148 113.462 251.162 113.572C250.176 113.645 249.299 113.864 248.532 114.266C247.765 114.667 247.107 115.105 246.559 115.689C246.011 116.273 245.646 116.967 245.354 117.734C245.062 118.5 244.989 119.34 245.062 120.216C245.135 121.056 245.354 121.859 245.756 122.589Z" fill="#EF4D30"/>
<path d="M259.998 131.971L259.523 141.974L257.806 141.901L258.208 133.76L244.035 133.066L244.145 131.205L260.034 131.971H259.998Z" fill="#EF4D30"/>
<path d="M259.014 146.902L258.686 148.728L245.792 146.391L245.901 145.479L256.823 159.096L256.713 159.789L241.043 156.942L241.372 155.116L254.448 157.489L254.521 158.767L243.271 144.749L243.381 144.055L259.051 146.902H259.014Z" fill="#EF4D30"/>
<path d="M255.142 165.63L254.521 167.419L242.102 163.184L242.321 162.308L251.124 177.385L250.905 178.043L235.855 172.932L236.476 171.143L249.078 175.414L248.969 176.692L239.91 161.14L240.129 160.483L255.178 165.594L255.142 165.63Z" fill="#EF4D30"/>
<path d="M193.59 225.063C194.686 224.881 195.745 224.917 196.768 225.173C197.791 225.428 198.74 225.866 199.617 226.523C200.494 227.18 201.224 227.984 201.845 228.969C202.539 230.028 202.978 231.123 203.16 232.182C203.343 233.241 203.306 234.299 203.051 235.285C202.795 236.271 202.357 237.183 201.699 238.059C201.042 238.899 200.238 239.629 199.288 240.25C198.777 240.578 198.302 240.834 197.754 241.053C197.243 241.272 196.695 241.418 196.184 241.528C195.672 241.637 195.088 241.71 194.54 241.71C193.992 241.71 193.444 241.674 192.896 241.564L193.042 239.775C193.919 239.994 194.796 240.031 195.745 239.848C196.658 239.666 197.535 239.337 198.375 238.79C199.106 238.315 199.727 237.767 200.202 237.147C200.713 236.49 201.042 235.796 201.224 235.029C201.407 234.263 201.443 233.423 201.297 232.583C201.151 231.744 200.823 230.868 200.238 229.991C199.69 229.152 199.069 228.495 198.375 227.984C197.645 227.472 196.878 227.107 196.074 226.925C195.27 226.742 194.467 226.742 193.627 226.925C192.787 227.071 191.983 227.399 191.179 227.911C190.266 228.495 189.572 229.188 189.061 229.955C188.549 230.758 188.257 231.561 188.148 232.364L186.504 231.999C186.65 231.014 187.015 229.991 187.636 229.006C188.257 228.02 189.134 227.144 190.339 226.377C191.399 225.684 192.494 225.246 193.59 225.063Z" fill="#EF4D30"/>
<path d="M185.119 245.726L189.977 243.462L190.707 245.032L179.274 250.362L178.544 248.792L183.402 246.529L177.375 233.679L179.055 232.875L185.082 245.726H185.119Z" fill="#EF4D30"/>
<path d="M165.902 229.261L164.368 255.4L162.578 255.984V255.838L164.112 229.553L165.829 229.006L165.902 229.298V229.261ZM176.276 251.421V251.567L174.376 252.188L164.843 241.163V238.242L176.276 251.421Z" fill="#EF4D30"/>
<path d="M158.743 242.44L141.941 245.397L140.918 239.629L142.708 239.301L143.438 243.389L156.698 241.053L155.967 236.964L157.757 236.636L158.78 242.404L158.743 242.44ZM156.332 244.594C156.186 245.397 156.113 246.273 156.113 247.223C156.113 248.172 156.113 249.121 156.223 250.143C156.332 251.165 156.442 252.188 156.625 253.246L157.319 257.116L147.018 258.941L144.461 244.558L146.324 244.229L148.698 257.627L147.712 257.079L156.04 255.619L155.419 256.459L154.798 253.027C154.652 252.151 154.506 251.275 154.433 250.399C154.323 249.523 154.287 248.61 154.287 247.77C154.287 246.894 154.323 246.054 154.433 245.178C154.543 244.339 154.725 243.499 154.981 242.696L157.026 242.44C156.734 243.097 156.479 243.828 156.369 244.631L156.332 244.594Z" fill="#EF4D30"/>
<path d="M140.114 259.635H138.251L137.886 246.566L138.799 246.456L127.695 259.927H127.001L126.562 244.047H128.425L128.791 257.298L127.549 257.627L138.982 243.718H139.676L140.114 259.598V259.635Z" fill="#EF4D30"/>
<path d="M112.172 248.683L115.789 249.084C117.798 249.303 119.332 249.888 120.391 250.764C121.45 251.676 121.852 252.954 121.669 254.706C121.487 256.422 120.756 257.627 119.478 258.284C118.236 258.941 116.483 259.16 114.291 258.905L109.141 258.321L110.93 242.513L112.83 242.732L112.136 248.683H112.172ZM111.99 250.362L111.259 256.824L114.364 257.189C115.204 257.298 115.935 257.335 116.556 257.298C117.213 257.298 117.761 257.152 118.236 256.97C118.711 256.787 119.076 256.495 119.332 256.094C119.587 255.692 119.77 255.181 119.843 254.487C119.989 253.283 119.697 252.406 118.93 251.859C118.163 251.311 117.03 250.946 115.496 250.764L112.026 250.362H111.99ZM123.642 244.229L117.104 250.472L114.985 250.034L121.56 243.718L123.715 243.973V244.229H123.642Z" fill="#EF4D30"/>
<path d="M93.2499 246.712L84.1912 251.603L82.2188 250.91L82.2918 250.654L90.8757 246.127L85.7984 235.577L85.8715 235.322L87.99 236.052L93.2134 246.639L93.2499 246.712ZM97.1218 243.536L96.9392 244.047L94.8571 250.18L94.7841 250.435L93.323 254.743L91.5332 254.122L92.9942 249.815L93.0673 249.559L96.647 239.045L98.4368 239.666L97.1218 243.536ZM94.8206 248.172L91.8984 247.186L92.4463 245.616L95.3685 246.602L94.8206 248.172Z" fill="#EF4D30"/>
<path d="M81.4142 233.533C82.1082 234.336 82.5831 235.249 82.9118 236.234C83.204 237.22 83.3136 238.279 83.2406 239.374C83.131 240.469 82.8388 241.528 82.2909 242.623C81.743 243.682 81.0855 244.558 80.2819 245.288C79.4783 246.018 78.5651 246.529 77.6154 246.858C76.6657 247.186 75.6429 247.296 74.5836 247.223C73.5243 247.15 72.5016 246.858 71.5154 246.347C70.5291 245.835 69.689 245.215 69.0315 244.412C68.3375 243.609 67.8626 242.732 67.5339 241.783C67.2052 240.834 67.0956 239.812 67.2052 238.753C67.2782 237.694 67.607 236.599 68.1549 235.541C68.7028 234.482 69.3603 233.569 70.2004 232.839C71.0405 232.109 71.9172 231.561 72.8669 231.233C73.8531 230.868 74.8393 230.758 75.8986 230.795C76.9579 230.868 77.9807 231.123 78.9669 231.634C79.9896 232.145 80.8298 232.803 81.4873 233.606L81.4142 233.533ZM75.7525 232.474C74.9489 232.438 74.1453 232.547 73.4148 232.803C72.6842 233.058 71.9902 233.496 71.3327 234.08C70.7118 234.664 70.1639 235.395 69.7255 236.271C69.2872 237.147 69.0315 237.987 68.9585 238.826C68.8854 239.666 68.9585 240.469 69.1776 241.199C69.3968 241.929 69.7986 242.623 70.31 243.243C70.8579 243.864 71.4788 244.339 72.2459 244.74C73.0495 245.142 73.8166 245.361 74.6202 245.434C75.4238 245.507 76.1908 245.397 76.9214 245.142C77.6519 244.886 78.3459 244.485 78.9669 243.901C79.5879 243.353 80.1358 242.623 80.5741 241.747C81.0124 240.871 81.2681 239.994 81.3777 239.155C81.4873 238.315 81.3777 237.475 81.195 236.745C80.9759 235.979 80.6106 235.285 80.0992 234.664C79.5878 234.044 78.9304 233.533 78.1268 233.131C77.3597 232.73 76.5561 232.547 75.7525 232.511V232.474Z" fill="#EF4D30"/>
<path d="M65.7832 224.662C66.3676 225.611 66.7329 226.596 66.879 227.619C67.0251 228.641 66.9521 229.699 66.6964 230.758C66.4407 231.817 65.9293 232.803 65.2718 233.752C64.5413 234.774 63.7012 235.577 62.788 236.161C61.8748 236.745 60.8886 237.074 59.8658 237.22C58.8431 237.366 57.8203 237.293 56.7975 237.001C55.7748 236.709 54.7885 236.271 53.8754 235.614C53.4005 235.285 52.9622 234.92 52.5604 234.518C52.1586 234.117 51.8299 233.679 51.5011 233.241C51.2089 232.766 50.9167 232.291 50.6975 231.78C50.4783 231.269 50.3322 230.722 50.2227 230.174L51.9394 229.626C52.049 230.539 52.3778 231.379 52.8891 232.145C53.4005 232.912 54.058 233.606 54.8616 234.19C55.5556 234.701 56.2862 235.029 57.0898 235.285C57.8933 235.504 58.6604 235.577 59.464 235.431C60.2676 235.321 61.0347 235.029 61.7652 234.591C62.4958 234.153 63.1898 233.496 63.7742 232.656C64.3586 231.853 64.7239 231.014 64.9431 230.174C65.1622 229.298 65.1988 228.495 65.0527 227.655C64.9066 226.852 64.6143 226.085 64.1395 225.355C63.6646 224.625 63.0802 224.004 62.3131 223.457C61.4365 222.836 60.5233 222.435 59.6101 222.252C58.6969 222.07 57.8203 222.106 57.0532 222.325L56.761 220.682C57.7472 220.463 58.8065 220.427 59.9389 220.609C61.0712 220.792 62.2401 221.303 63.4089 222.106C64.4317 222.836 65.2353 223.676 65.8197 224.625L65.7832 224.662Z" fill="#EF4D30"/>
<path d="M43.4263 227.071L42.8419 226.487L47.4443 213.564L34.6963 218.492L34.1484 217.944L43.3167 204.619L44.5952 205.897L37.8011 215.608L49.8916 210.972L50.1108 211.191L45.8736 223.238L55.2976 216.484L56.5761 217.762L43.3898 227.107L43.4263 227.071Z" fill="#EF4D30"/>
<path d="M39.2284 199.545C39.4841 200.567 39.5207 201.626 39.3745 202.648C39.2284 203.67 38.8632 204.656 38.2787 205.605C37.6943 206.554 36.8907 207.394 35.8679 208.161C34.8452 208.927 33.7859 209.402 32.6901 209.621C31.6308 209.84 30.5715 209.876 29.5488 209.657C28.5625 209.475 27.6128 209.11 26.7362 208.526C25.8595 207.978 25.129 207.284 24.5445 206.445C23.814 205.423 23.3391 204.437 23.1565 203.415C22.9739 202.392 22.9739 201.407 23.1565 200.458C23.3757 199.508 23.7409 198.669 24.2888 197.866C24.8368 197.099 25.4577 196.405 26.1883 195.894L26.9919 195.31L35.32 206.737L33.9685 207.722L26.2248 197.099L27.7955 197.026L27.2841 197.391C26.6631 197.866 26.1152 198.377 25.7134 198.997C25.3116 199.618 25.0194 200.275 24.8733 201.005C24.7272 201.735 24.7272 202.465 24.8733 203.232C25.0194 203.999 25.3847 204.729 25.9326 205.459C26.4074 206.116 27.0284 206.664 27.6859 207.102C28.3799 207.54 29.1104 207.795 29.914 207.905C30.7176 208.014 31.5212 207.978 32.3248 207.759C33.1284 207.54 33.932 207.175 34.6991 206.627C35.5027 206.043 36.1236 205.386 36.562 204.619C37.0368 203.853 37.329 203.086 37.4386 202.283C37.5847 201.48 37.5117 200.677 37.329 199.837C37.1099 198.997 36.7811 198.267 36.2697 197.574C35.5757 196.661 34.8087 195.931 33.8955 195.456C32.9823 194.982 32.0326 194.69 31.0829 194.617L31.2655 192.937C32.6536 193.047 33.8589 193.412 34.9548 194.069C36.0506 194.726 36.9638 195.602 37.7308 196.624C38.4248 197.537 38.8632 198.523 39.1189 199.581L39.2284 199.545Z" fill="#EF4D30"/>
<path d="M18.0068 192.426L20.6002 197.136L19.1026 197.975L13.0391 186.95L14.5367 186.111L17.1301 190.82L29.5493 183.993L30.4625 185.636L18.0433 192.463L18.0068 192.426Z" fill="#EF4D30"/>
<path d="M24.5095 174.319C24.473 175.378 24.2173 176.363 23.8155 177.312C23.3772 178.262 22.7562 179.101 21.9527 179.831C21.1491 180.562 20.1993 181.182 19.067 181.584C17.9712 182.022 16.8754 182.204 15.8161 182.204C14.7203 182.204 13.734 181.985 12.7843 181.584C11.8346 181.182 11.031 180.598 10.3005 179.831C9.56995 179.065 9.02205 178.189 8.58372 177.13C8.18192 176.108 7.99929 175.086 8.03582 174.027C8.03582 172.968 8.29151 171.983 8.6933 171.07C9.0951 170.157 9.71606 169.318 10.4831 168.587C11.2502 167.857 12.1999 167.273 13.3322 166.835C14.4646 166.397 15.5604 166.178 16.6562 166.178C17.752 166.178 18.7748 166.397 19.7245 166.762C20.6742 167.164 21.5143 167.711 22.2814 168.478C23.0485 169.245 23.5964 170.121 23.9982 171.143C24.4 172.202 24.5826 173.26 24.5461 174.282L24.5095 174.319ZM21.0029 169.719C20.4185 169.135 19.761 168.697 19.0305 168.405C18.2999 168.113 17.4963 167.967 16.6197 167.967C15.743 167.967 14.8664 168.149 13.9532 168.514C13.04 168.879 12.273 169.318 11.652 169.902C11.031 170.486 10.5562 171.106 10.2274 171.8C9.8987 172.494 9.71606 173.26 9.71606 174.063C9.71606 174.867 9.86217 175.67 10.1544 176.473C10.4831 177.312 10.9215 178.006 11.4694 178.59C12.0173 179.174 12.6748 179.612 13.3688 179.904C14.0628 180.197 14.8664 180.343 15.7065 180.343C16.5466 180.343 17.4233 180.16 18.3365 179.795C19.2496 179.43 20.0167 178.955 20.6742 178.408C21.3317 177.824 21.8065 177.203 22.1353 176.473C22.464 175.779 22.6832 175.013 22.7197 174.173C22.7197 173.37 22.6101 172.53 22.2814 171.727C21.9892 170.924 21.5143 170.23 20.9299 169.683L21.0029 169.719Z" fill="#EF4D30"/>
<path d="M20.7837 163.185C20.7837 163.185 20.7837 163.404 20.7837 163.44L18.8843 163.878C18.8843 163.878 18.8843 163.732 18.8843 163.623C18.8843 163.55 18.8478 163.44 18.8112 163.367C18.7382 163.112 18.5921 162.856 18.2999 162.601C18.0442 162.345 17.5328 162.162 16.8388 162.089C16.1448 161.98 15.1585 161.98 13.9166 162.089C12.6747 162.199 11.031 162.491 9.0585 162.966L4.52914 164.024L2.19141 154.058L17.6789 150.444L18.1172 152.306L4.30998 155.518L5.80759 161.87L9.64294 160.994C11.5789 160.556 13.2226 160.264 14.5741 160.191C15.9256 160.118 17.0214 160.191 17.8981 160.374C18.7747 160.593 19.4322 160.885 19.8705 161.286C20.3089 161.688 20.6376 162.162 20.7472 162.71C20.7837 162.893 20.8202 163.075 20.8202 163.185H20.7837Z" fill="#EF4D30"/>
<path d="M16.2902 142.777C15.9614 143.763 15.45 144.676 14.756 145.442C14.062 146.209 13.2219 146.866 12.2722 147.341C11.286 147.815 10.1901 148.107 9.02128 148.217C7.85241 148.326 6.7566 148.217 5.69731 147.888C4.67455 147.56 3.76137 147.085 2.95778 146.428C2.15418 145.771 1.53322 144.968 1.05837 144.055C0.583516 143.142 0.291299 142.084 0.181718 140.989C0.0721367 139.893 0.181718 138.835 0.510462 137.849C0.839206 136.863 1.31406 135.951 1.97155 135.184C2.62903 134.417 3.43263 133.797 4.38234 133.286C5.33204 132.811 6.42785 132.519 7.59672 132.409C8.80212 132.3 9.89793 132.409 10.9572 132.738C12.0165 133.067 12.9297 133.541 13.7333 134.198C14.5369 134.855 15.1944 135.622 15.6692 136.571C16.1441 137.52 16.4728 138.506 16.5459 139.601C16.6554 140.733 16.5459 141.792 16.1806 142.777H16.2902ZM14.2447 137.374C13.8429 136.644 13.3315 136.06 12.7105 135.549C12.0896 135.074 11.359 134.709 10.5189 134.454C9.67877 134.198 8.80212 134.125 7.81589 134.235C6.82965 134.344 5.98953 134.527 5.22246 134.928C4.45539 135.293 3.83443 135.768 3.32305 136.352C2.81167 136.936 2.40987 137.63 2.19071 138.397C1.97155 139.163 1.86197 139.966 1.93502 140.843C2.00807 141.719 2.22724 142.522 2.59251 143.252C2.95778 143.982 3.43263 144.566 4.05359 145.077C4.67455 145.588 5.36857 145.917 6.17216 146.172C6.97576 146.428 7.85241 146.501 8.83864 146.391C9.82488 146.318 10.7015 146.099 11.4686 145.698C12.2357 145.296 12.8932 144.858 13.4411 144.274C13.989 143.69 14.3542 142.996 14.6465 142.23C14.9387 141.463 15.0117 140.623 14.9387 139.747C14.8656 138.908 14.6465 138.105 14.2447 137.374Z" fill="#EF4D30"/>
<path d="M-0.00253538 127.992L0.472317 117.989L2.18909 118.062L1.78729 126.203L15.9598 126.897L15.8502 128.759L-0.0390625 127.992H-0.00253538Z" fill="#EF4D30"/>
<path d="M0.98184 113.061L1.31058 111.236L14.2047 113.572L14.0951 114.485L3.17347 100.868L3.28305 100.174L18.9532 103.022L18.6244 104.847L5.54773 102.474L5.47467 101.196L16.725 115.215L16.6154 115.908L0.945312 113.061H0.98184Z" fill="#EF4D30"/>
<path d="M4.85684 94.3695L5.4778 92.5807L17.897 96.8155L17.6779 97.6916L8.87482 82.6144L9.09399 81.9573L24.1432 87.0682L23.5222 88.857L10.9203 84.5857L11.0299 83.308L20.0886 98.8598L19.8695 99.5169L4.82031 94.406L4.85684 94.3695Z" fill="#EF4D30"/>
<path d="M134.638 128.868C134.821 128.759 135.04 128.649 135.223 128.54C139.496 126.313 143.916 124.415 148.628 123.137C153.852 121.823 156.993 116.529 155.678 111.309C153.085 101.525 139.35 101.671 136.793 111.309C135.515 116.018 133.652 120.435 131.424 124.707C131.314 124.889 131.241 125.072 131.132 125.254L135.588 98.1298L129.999 79.8765L124.411 98.1298L128.867 125.364C128.757 125.145 128.611 124.926 128.502 124.707C126.274 120.435 124.374 116.018 123.096 111.309C121.781 106.088 116.484 102.949 111.261 104.263C101.472 106.855 101.618 120.581 111.261 123.137C115.973 124.415 120.393 126.276 124.666 128.503C124.886 128.613 125.068 128.722 125.287 128.832L98.1112 124.378L79.8477 129.964L98.1112 135.549L125.287 131.095C125.068 131.205 124.886 131.314 124.666 131.424C120.393 133.651 115.973 135.549 111.261 136.79C101.618 139.309 101.472 153.036 111.261 155.664C116.484 156.978 121.781 153.839 123.096 148.618C124.374 143.909 126.237 139.492 128.502 135.22C128.611 135.001 128.757 134.782 128.867 134.563L124.411 161.797L129.999 180.051L135.588 161.797L131.132 134.673C131.132 134.673 131.314 135.038 131.424 135.22C133.652 139.492 135.552 143.909 136.793 148.618C139.314 158.256 153.048 158.402 155.678 148.618C156.993 143.398 153.852 138.104 148.628 136.79C143.916 135.513 139.496 133.651 135.223 131.387C135.04 131.278 134.821 131.168 134.638 131.059L161.851 135.513L180.115 129.927L161.851 124.342L134.638 128.795V128.868Z" fill="#EF4D30"/>
</g>
<defs>
<clipPath id="clip0_2226_686">
<rect width="260" height="260" fill="white"/>
</clipPath>
</defs>
</svg>
