<svg width="1566" height="341" viewBox="0 0 1566 341" fill="none" xmlns="http://www.w3.org/2000/svg">
<path d="M1332.73 86.6147L1382.63 203.673L1382.64 203.686C1387.63 215.189 1391.8 224.534 1395.66 232.644L1397.35 236.187L1399.22 232.741C1403.95 224.068 1408.65 214.055 1413.46 202.19L1413.46 202.186L1446.42 120.263L1446.73 119.497L1446.41 118.738L1432.82 86.6147H1470.28L1520.18 203.673L1520.18 203.678C1535.89 240.249 1544.04 256.893 1560.42 271.581L1559.89 271.715L1562.96 274.24L1564 275.089V282.397H1497.72V275.285L1498.48 274.525L1498.5 274.511L1498.51 274.497C1500.55 272.38 1502.1 270.226 1503.03 267.752C1503.96 265.266 1504.22 262.598 1503.91 259.53C1503.29 253.529 1500.4 245.665 1495.59 234.025L1495.59 234.012L1495.58 233.999L1453.06 134.885L1451.16 130.47L1449.36 134.925L1421.19 204.728C1411.64 228.304 1407.37 243.973 1408.68 255.52L1408.74 256.038L1409.05 256.46C1413.83 263.134 1419.15 268.746 1425.61 274.127L1425.62 274.132L1425.62 274.136L1426.66 274.986V282.293H1360.38V275.181L1361.14 274.421L1361.15 274.408L1361.17 274.393C1363.21 272.276 1364.76 270.122 1365.69 267.649C1366.62 265.163 1366.88 262.494 1366.56 259.426C1365.94 253.426 1363.06 245.561 1358.25 233.921L1358.24 233.909L1358.24 233.896L1315.72 134.782L1313.82 130.367L1312.02 134.822L1283.85 204.626V204.627C1275.89 224.368 1271.63 238.577 1271.18 249.384C1270.95 254.83 1271.67 259.483 1273.42 263.574C1275.18 267.67 1277.91 271.083 1281.5 274.119L1281.51 274.127L1281.52 274.136L1282.56 274.986V282.293H1230.1V275.138L1230.92 274.265C1247.11 257.817 1260.96 239.156 1275.91 202.189L1275.91 202.186L1308.87 120.263L1309.18 119.497L1308.86 118.738L1295.27 86.6147H1332.73Z" stroke="#D4D5E5" stroke-width="4"/>
<path d="M790.296 83.165C766.176 83.165 741.743 90.9326 721.886 105.432C735.817 88.3434 755.883 71.8761 777.093 60.5872C785.514 56.2373 796.846 51.5768 808.803 46.6055C833.339 36.4559 861.722 24.6491 878.981 10.6675V6.31764L867.96 0C867.337 0.414271 866.817 0.724975 866.089 1.13925C848.726 11.7032 828.661 17.9172 809.219 23.8206C804.436 25.2705 799.654 26.7205 794.975 28.274C760.25 40.2879 724.901 56.3409 702.132 92.7968C688.824 114.339 681.026 141.059 678.947 172.13C678.843 174.201 677.907 187.561 677.907 192.533C677.907 247.009 720.638 285.019 781.875 285.019C835.834 285.019 894.16 243.177 894.16 175.547C894.16 122.003 850.494 83.0614 790.192 83.0614L790.296 83.165ZM811.09 268.551C794.663 273.419 778.964 271.866 764.408 263.994C744.655 253.327 728.748 231.371 720.742 203.925C708.786 162.809 716.271 112.578 761.081 99.7358C767.32 97.9752 773.35 97.0431 779.172 97.0431C815.145 97.0431 841.345 129.667 851.429 164.362C863.386 205.479 855.9 255.709 811.09 268.551Z" fill="#D4D5E5"/>
<path d="M986.305 86.6147L1036.21 203.673L1036.21 203.678C1052.83 242.374 1060.99 258.761 1079.4 274.125L1079.4 274.131L1079.41 274.136L1080.44 274.986V282.293H1014.16V274.974L1014.72 274.421L1014.73 274.408L1014.75 274.393C1016.79 272.276 1018.33 270.121 1019.26 267.648C1020.2 265.162 1020.46 262.493 1020.14 259.425C1019.52 253.425 1016.64 245.561 1011.83 233.921L1011.82 233.909L1011.82 233.896L969.294 134.782L967.399 130.366L965.602 134.822L937.426 204.626V204.627C929.468 224.368 925.213 238.577 924.755 249.384C924.524 254.83 925.252 259.483 927.003 263.574C928.756 267.67 931.484 271.083 935.08 274.119L935.102 274.136L936.138 274.986V282.293H883.683V275.138L884.497 274.265C900.687 257.817 914.542 239.156 929.49 202.189L929.492 202.186L962.449 120.263L962.758 119.497L962.437 118.738L948.849 86.6147H986.305Z" stroke="#D4D5E5" stroke-width="4"/>
<path d="M1128.79 86.7187V93.7734L1128.08 94.5449C1126.07 96.7091 1124.59 98.9428 1123.71 101.488C1122.84 104.038 1122.61 106.773 1122.94 109.877C1123.59 115.971 1126.41 123.796 1131.02 134.985L1131.03 134.999L1131.03 135.013L1173.56 234.127L1175.45 238.543L1177.25 234.087L1205.42 164.285C1212.59 146.592 1217.31 132.71 1218.22 121.597C1218.68 116.001 1218.18 111.014 1216.49 106.549C1214.79 102.067 1211.94 98.2292 1207.85 94.8759L1206.82 94.0254V86.7187H1259.27V93.7627L1258.39 94.708C1242.18 111.166 1228.32 129.827 1213.36 166.823L1213.21 167.184V167.207C1213.16 167.348 1213.08 167.533 1212.99 167.761C1212.76 168.351 1212.41 169.219 1211.97 170.335C1211.07 172.565 1209.78 175.781 1208.18 179.744C1204.99 187.671 1200.58 198.587 1195.72 210.594C1186.02 234.608 1174.53 262.985 1167.41 280.539L1167.4 280.545C1160.63 297.406 1154.17 311.956 1145.07 322.317C1136.08 332.548 1124.49 338.738 1107.19 338.738C1093.09 338.738 1081.28 334.724 1071.87 326.78L1093.63 308.15L1096.26 309.232C1097.38 315.387 1099.52 321.088 1103.13 324.911V324.912C1106.41 328.418 1110.59 329.846 1115.63 329.262L1115.64 329.261C1123.56 328.329 1130.02 325.537 1136.42 318.555C1142.71 311.701 1148.93 300.833 1156.63 283.879L1156.99 283.076L1156.65 282.266L1106.74 165.338L1106.74 165.334L1105.21 161.771C1089.6 125.614 1081.39 109.669 1063.55 94.8828V94.8818L1063.54 94.8759L1062.51 94.0254V86.7187H1128.79Z" stroke="#D4D5E5" stroke-width="4"/>
<path d="M181.564 252.084V154.212C181.564 102.014 144.032 83.4756 108.994 83.4756C85.6017 83.4756 66.5756 92.9003 55.4511 109.885C46.1979 124.074 43.2869 143.027 47.7575 157.527C11.7846 173.994 -4.74626 202.164 1.17991 237.585C7.10607 270.416 43.8067 285.329 75.3089 285.329C104.524 285.329 126.669 272.28 140.601 247.216V282.947H190.297V272.694L187.906 271.244C184.683 269.276 181.564 266.273 181.564 252.084ZM67.5113 116.41C76.1407 104.086 89.8644 97.043 105.356 97.043C135.402 97.043 139.977 130.392 140.497 145.202C134.155 143.752 127.917 143.027 121.575 143.027C108.994 143.027 85.1859 144.27 60.8574 152.348C57.6344 140.024 60.0256 127.078 67.5113 116.41ZM140.601 215.11C134.882 235.203 120.015 268.551 84.4581 270.623C67.5113 271.555 46.1979 260.68 41.5194 241.106C35.8012 217.7 38.6083 198.54 49.9408 184.144C70.3185 158.252 109.93 156.284 121.575 156.284C129.788 156.284 136.65 157.63 140.497 158.562V215.11H140.601Z" fill="#D4D5E5"/>
<path d="M618.748 221.221C602.633 249.288 580.176 266.066 555.432 268.551C517.068 272.383 485.981 251.256 472.05 212.107C462.589 185.283 464.876 152.866 477.872 129.46C487.229 112.475 501.265 101.497 518.523 97.6646C551.689 89.897 587.974 120.242 597.331 143.752L598.578 146.756H608.247L615.525 106.571L612.406 104.914C592.444 94.5575 559.798 83.4758 535.262 83.4758C510.726 83.4758 478.184 92.4862 453.543 117.86C452.608 118.792 451.776 119.828 450.84 120.864C435.453 130.288 421.833 142.613 411.02 157.009C402.079 169.023 395.633 181.555 390.955 193.776V83.4758H383.365L341.258 93.1076V103.775L345.313 104.396C348.744 104.914 349.991 105.121 349.991 118.585V149.034C349.991 189.943 339.803 261.198 301.646 268.655C290.002 270.83 280.125 268.655 272.327 262.13C261.619 253.223 255.485 236.756 255.485 216.871V83.3722H247.895L205.788 93.004V103.671L209.843 104.293C213.274 104.811 214.521 105.018 214.521 118.482V210.864C214.521 256.02 242.073 285.122 284.7 285.122C321.712 285.122 340.218 259.955 349.991 230.231V282.74H400.104V272.383L397.609 271.037C394.074 269.069 390.955 266.169 390.955 251.981V227.228C394.282 206.825 401.871 183.522 417.986 161.98C423.393 154.834 429.527 148.413 436.077 142.509C429.319 156.388 426.096 171.923 426.616 188.494C427.239 216.146 437.428 239.863 455.935 256.952C475.688 275.18 504.28 285.329 535.366 285.329C537.757 285.329 540.252 285.329 542.644 285.122C579.968 282.947 609.183 263.373 629.457 227.021L631.848 222.671L620.931 217.182L618.644 221.117L618.748 221.221Z" fill="#D4D5E5"/>
<path d="M299.894 93C319.924 93 332.947 79.0658 334.717 55.6477L335 52H327.073L326.365 54.4804C322.543 68.1228 314.828 73.7402 299.823 73.7402C284.818 73.7402 277.103 67.9769 273.564 54.5534L272.927 52.073H265L265.212 55.6477C266.699 78.7011 279.934 93 299.823 93H299.894Z" fill="#D4D5E5"/>
</svg>
