<svg width="267" height="191" viewBox="0 0 267 191" fill="none" xmlns="http://www.w3.org/2000/svg">
<path d="M266.592 170.454C261.162 165.944 258.746 161.154 253.724 149.521L238.503 114H225.886L230.343 124.482L220.394 149.086C218.95 152.631 217.538 155.617 216.126 158.199C214.964 155.773 213.709 152.974 212.202 149.521L196.981 114H184.364L188.821 124.482L178.872 149.086C174.384 160.128 170.241 165.664 165.408 170.547L165 170.983V173.969H182.042V170.89L181.508 170.454C177.397 167.002 177.585 162.118 182.387 150.267L190.892 129.303L203.729 159.07C206.647 166.1 207.055 168.184 204.733 170.579L204.325 170.983V173.969H225.541V170.89L225.007 170.454C223.093 168.868 221.524 167.219 220.111 165.26C219.735 161.963 220.959 157.39 223.846 150.299L232.351 129.334L245.188 159.101C248.106 166.131 248.514 168.215 246.192 170.61L245.784 171.014V174H267V170.921L266.466 170.485L266.592 170.454Z" fill="#3A477E"/>
<path d="M33.7813 113.802C26.5313 113.802 19.1875 116.118 13.2188 120.443C17.4063 115.346 23.4375 110.435 29.8125 107.069C32.3437 105.771 35.75 104.382 39.3438 102.899C46.7188 99.8721 55.25 96.351 60.4375 92.1813V90.8841L57.125 89C56.9375 89.1235 56.7812 89.2162 56.5625 89.3398C51.3437 92.4902 45.3125 94.3434 39.4688 96.1039C38.0313 96.5363 36.5938 96.9687 35.1875 97.432C24.75 101.015 14.125 105.802 7.28125 116.674C3.28126 123.099 0.937495 131.068 0.312495 140.334C0.281245 140.951 0 144.936 0 146.418C0 162.665 12.8437 174 31.25 174C47.4687 174 65 161.522 65 141.353C65 125.384 51.875 113.771 33.75 113.771L33.7813 113.802ZM40.0313 169.089C35.0938 170.541 30.375 170.077 26 167.73C20.0625 164.549 15.2813 158.001 12.875 149.816C9.28126 137.554 11.5312 122.574 25 118.744C26.875 118.219 28.6875 117.941 30.4375 117.941C41.25 117.941 49.125 127.67 52.1562 138.017C55.75 150.279 53.5 165.259 40.0313 169.089Z" fill="#3A477E"/>
<path d="M100.645 171.012V174H122V170.919L121.463 170.483C115.998 165.971 113.566 161.178 108.511 149.539L93.1901 114H80.4909L84.9767 124.488L74.9627 149.104C70.4454 160.151 66.2755 165.691 61.4107 170.577L61 171.012V174H78.1533V170.919L77.6163 170.483C73.478 167.029 73.6676 162.143 78.5008 150.286L87.0616 129.311L99.9819 159.093C102.92 166.127 103.33 168.212 100.993 170.608L100.582 171.012H100.645Z" fill="#3A477E"/>
<path d="M175 116.99V114H158.409V117.084L158.929 117.52C163.451 121.32 162.259 127.051 158.042 137.704L149.762 158.699L137.266 128.889C134.546 122.13 134.088 119.794 136.288 117.364L136.655 116.959V114H116V117.084L116.519 117.52C121.805 122.005 124.158 126.833 129.047 138.483L143.713 173.65C139.191 183.836 136.532 186.421 132.133 186.951C130.819 187.106 129.78 186.733 128.955 185.829C127.947 184.739 127.336 183.026 127.03 181.095L125.625 180.503L118.444 186.795C121.408 189.598 125.197 191 129.719 191C140.229 191 143.988 183.244 147.96 173.121C152.146 162.561 161.465 138.981 161.465 138.919C165.834 127.861 169.867 122.317 174.572 117.426L174.969 116.99H175Z" fill="#3A477E"/>
<path d="M54.3841 61.118V32.0262C54.3841 16.5105 43.142 11 32.6473 11C25.6404 11 19.9415 13.8014 16.6093 18.8502C13.8377 23.0677 12.9658 28.7014 14.3049 33.0113C3.52986 37.9061 -1.42165 46.2796 0.353419 56.8081C2.12849 66.567 13.1215 71 22.5574 71C31.3082 71 37.9413 67.1211 42.1143 59.6711V70.2919H57V67.2442L56.2837 66.8132C55.3184 66.2283 54.3841 65.3355 54.3841 61.118ZM20.2218 20.7896C22.8065 17.1262 26.9172 15.0328 31.5573 15.0328C40.5572 15.0328 41.9275 24.9456 42.0832 29.3479C40.1835 28.9169 38.315 28.7014 36.4154 28.7014C32.6473 28.7014 25.5158 29.0708 18.2287 31.472C17.2633 27.8086 17.9796 23.9605 20.2218 20.7896ZM42.1143 50.1278C40.4015 56.1 35.9483 66.0128 25.2978 66.6285C20.2218 66.9056 13.8377 63.6732 12.4364 57.8548C10.7236 50.8974 11.5644 45.2022 14.9588 40.923C21.0626 33.2268 32.9275 32.6419 36.4154 32.6419C38.8756 32.6419 40.9309 33.0421 42.0832 33.3191V50.1278H42.1143Z" fill="#3A477E"/>
<path d="M186.034 51.9538C181.154 60.2923 174.355 65.2769 166.863 66.0154C155.247 67.1539 145.835 60.8769 141.617 49.2462C138.753 41.2769 139.445 31.6462 143.38 24.6923C146.213 19.6462 150.463 16.3846 155.688 15.2462C165.73 12.9385 176.716 21.9538 179.549 28.9385L179.927 29.8308H182.854L185.058 17.8923L184.113 17.4C178.07 14.3231 168.185 11.0308 160.756 11.0308C153.327 11.0308 143.474 13.7077 136.014 21.2462C135.731 21.5231 135.479 21.8308 135.195 22.1385C130.537 24.9385 126.413 28.6 123.139 32.8769C120.432 36.4462 118.48 40.1692 117.064 43.8V11.0308H114.766L102.017 13.8923V17.0615L103.245 17.2462C104.283 17.4 104.661 17.4615 104.661 21.4615V30.5077C104.661 42.6615 101.576 63.8308 90.0234 66.0462C86.4978 66.6923 83.5073 66.0462 81.1464 64.1077C77.9041 61.4615 76.0469 56.5692 76.0469 50.6615V11H73.7489L61 13.8615V17.0308L62.2277 17.2154C63.2665 17.3692 63.6442 17.4308 63.6442 21.4308V48.8769C63.6442 62.2923 71.9861 70.9385 84.8924 70.9385C96.0988 70.9385 101.702 63.4615 104.661 54.6308V70.2308H119.834V67.1538L119.078 66.7538C118.008 66.1692 117.064 65.3077 117.064 61.0923V53.7385C118.071 47.6769 120.369 40.7538 125.248 34.3538C126.885 32.2308 128.742 30.3231 130.725 28.5692C128.679 32.6923 127.704 37.3077 127.861 42.2308C128.05 50.4462 131.135 57.4923 136.738 62.5692C142.719 67.9846 151.376 71 160.788 71C161.512 71 162.267 71 162.991 70.9385C174.292 70.2923 183.138 64.4769 189.276 53.6769L190 52.3846L186.695 50.7538L186.002 51.9231L186.034 51.9538Z" fill="#3A477E"/>
<path d="M89.9697 12C95.6926 12 99.4135 7.92171 99.9191 1.06762L100 0H97.7351L97.5329 0.725979C96.4408 4.71886 94.2366 6.36299 89.9494 6.36299C85.6623 6.36299 83.458 4.67616 82.4469 0.747331L82.2649 0.0213523H80L80.0607 1.06762C80.4853 7.81495 84.2669 12 89.9494 12H89.9697Z" fill="#3A477E"/>
</svg>
