<svg width="1566" height="341" viewBox="0 0 1566 341" fill="none" xmlns="http://www.w3.org/2000/svg">
<path d="M1564.65 272.59C1546.66 257.573 1538.66 241.624 1522.02 202.889L1471.6 84.6147H1429.8L1444.57 119.517L1411.61 201.439C1406.83 213.246 1402.15 223.188 1397.47 231.785C1393.62 223.706 1389.46 214.385 1384.47 202.889L1334.05 84.6147H1292.25L1307.02 119.517L1274.06 201.439C1259.19 238.206 1245.47 256.641 1229.46 272.901L1228.1 274.351V284.293H1284.56V274.04L1282.79 272.59C1269.17 261.094 1269.8 244.834 1285.7 205.375L1313.88 135.57L1356.4 234.684C1366.07 258.091 1367.42 265.03 1359.73 273.005L1358.38 274.351V284.293H1428.66V274.04L1426.89 272.59C1420.55 267.308 1415.35 261.819 1410.67 255.294C1409.42 244.316 1413.48 229.092 1423.04 205.478L1451.22 135.674L1493.74 234.788C1503.41 258.194 1504.76 265.133 1497.07 273.108L1495.72 274.455V284.397H1566V274.144L1564.23 272.694L1564.65 272.59Z" fill="#3A477E"/>
<path d="M790.296 83.165C766.176 83.165 741.743 90.9326 721.885 105.432C735.817 88.3434 755.883 71.8761 777.092 60.5872C785.514 56.2373 796.846 51.5768 808.802 46.6055C833.339 36.4559 861.722 24.6491 878.981 10.6675V6.31764L867.96 0C867.336 0.414271 866.816 0.724975 866.089 1.13925C848.726 11.7032 828.66 17.9172 809.218 23.8206C804.436 25.2705 799.653 26.7205 794.975 28.274C760.249 40.2879 724.9 56.3409 702.131 92.7968C688.823 114.339 681.026 141.059 678.947 172.13C678.843 174.201 677.907 187.561 677.907 192.533C677.907 247.009 720.638 285.019 781.875 285.019C835.834 285.019 894.16 243.177 894.16 175.547C894.16 122.003 850.493 83.0614 790.192 83.0614L790.296 83.165ZM811.09 268.551C794.663 273.419 778.964 271.866 764.408 263.994C744.654 253.327 728.747 231.371 720.742 203.925C708.785 162.809 716.271 112.578 761.081 99.7358C767.319 97.9752 773.349 97.0431 779.172 97.0431C815.144 97.0431 841.344 129.667 851.429 164.362C863.385 205.479 855.9 255.709 811.09 268.551Z" fill="#3A477E"/>
<path d="M1012.16 274.351V284.293H1082.44V274.04L1080.68 272.59C1062.69 257.573 1054.69 241.624 1038.05 202.889L987.626 84.6147H945.831L960.594 119.517L927.637 201.439C912.769 238.206 899.045 256.641 883.034 272.901L881.683 274.351V284.293H938.137V274.04L936.37 272.59C922.75 261.094 923.374 244.834 939.281 205.375L967.456 135.57L1009.98 234.684C1019.65 258.091 1021 265.03 1013.31 273.005L1011.95 274.351H1012.16Z" fill="#3A477E"/>
<path d="M1261.27 94.6612V84.7187H1204.82V94.9719L1206.58 96.4219C1221.97 109.057 1217.92 128.114 1203.57 163.534L1175.39 233.339L1132.87 134.224C1123.62 111.75 1122.06 103.982 1129.54 95.904L1130.79 94.5577V84.7187H1060.51V94.9719L1062.28 96.4219C1080.26 111.336 1088.27 127.389 1104.9 166.123L1154.81 283.051C1139.42 316.918 1130.38 325.514 1115.4 327.275C1110.93 327.792 1107.4 326.55 1104.59 323.546C1101.16 319.921 1099.08 314.225 1098.04 307.804L1093.26 305.836L1068.83 326.757C1078.91 336.078 1091.8 340.738 1107.19 340.738C1142.96 340.738 1155.74 314.95 1169.26 281.29C1183.5 246.181 1215.21 167.78 1215.21 167.573C1230.08 130.806 1243.8 112.371 1259.82 96.1112L1261.17 94.6612H1261.27Z" fill="#3A477E"/>
<path d="M181.564 252.084V154.212C181.564 102.014 144.032 83.4756 108.994 83.4756C85.6017 83.4756 66.5756 92.9003 55.4511 109.885C46.1979 124.074 43.2869 143.027 47.7575 157.527C11.7846 173.994 -4.74626 202.164 1.17991 237.585C7.10607 270.416 43.8067 285.329 75.3089 285.329C104.524 285.329 126.669 272.28 140.601 247.216V282.947H190.297V272.694L187.906 271.244C184.683 269.276 181.564 266.273 181.564 252.084ZM67.5113 116.41C76.1407 104.086 89.8644 97.043 105.356 97.043C135.402 97.043 139.977 130.392 140.497 145.202C134.155 143.752 127.917 143.027 121.575 143.027C108.994 143.027 85.1859 144.27 60.8574 152.348C57.6344 140.024 60.0256 127.078 67.5113 116.41ZM140.601 215.11C134.882 235.203 120.015 268.551 84.4581 270.623C67.5113 271.555 46.1979 260.68 41.5194 241.106C35.8012 217.7 38.6083 198.54 49.9408 184.144C70.3185 158.252 109.93 156.284 121.575 156.284C129.788 156.284 136.65 157.63 140.497 158.562V215.11H140.601Z" fill="#3A477E"/>
<path d="M618.748 221.221C602.633 249.288 580.176 266.066 555.431 268.551C517.067 272.383 485.981 251.256 472.049 212.107C462.588 185.283 464.875 152.866 477.871 129.46C487.229 112.475 501.264 101.497 518.523 97.6646C551.689 89.897 587.973 120.242 597.33 143.752L598.578 146.756H608.247L615.525 106.571L612.406 104.914C592.444 94.5575 559.798 83.4758 535.262 83.4758C510.725 83.4758 478.183 92.4862 453.543 117.86C452.607 118.792 451.776 119.828 450.84 120.864C435.453 130.288 421.833 142.613 411.02 157.009C402.079 169.023 395.633 181.555 390.954 193.776V83.4758H383.365L341.258 93.1076V103.775L345.313 104.396C348.743 104.914 349.991 105.121 349.991 118.585V149.034C349.991 189.943 339.802 261.198 301.646 268.655C290.002 270.83 280.125 268.655 272.327 262.13C261.618 253.223 255.484 236.756 255.484 216.871V83.3722H247.895L205.788 93.004V103.671L209.843 104.293C213.273 104.811 214.521 105.018 214.521 118.482V210.864C214.521 256.02 242.073 285.122 284.699 285.122C321.712 285.122 340.218 259.955 349.991 230.231V282.74H400.104V272.383L397.608 271.037C394.073 269.069 390.954 266.169 390.954 251.981V227.228C394.281 206.825 401.871 183.522 417.986 161.98C423.392 154.834 429.526 148.413 436.076 142.509C429.319 156.388 426.096 171.923 426.615 188.494C427.239 216.146 437.428 239.863 455.934 256.952C475.688 275.18 504.279 285.329 535.366 285.329C537.757 285.329 540.252 285.329 542.643 285.122C579.968 282.947 609.183 263.373 629.457 227.021L631.848 222.671L620.931 217.182L618.644 221.117L618.748 221.221Z" fill="#3A477E"/>
</svg>
