<svg width="50" height="38" viewBox="0 0 50 38" fill="none" xmlns="http://www.w3.org/2000/svg">
<path d="M9.75232 22.582C12.2291 22.7896 14.0867 23.6202 15.3251 25.0738C16.5635 26.4235 17.1827 28.0328 17.1827 29.9016C17.1827 32.2896 16.3571 34.2623 14.7059 35.8197C13.0547 37.2732 11.1455 38 8.97833 38C6.29515 38 4.12797 37.1694 2.47678 35.5082C0.825593 33.847 0 31.7705 0 29.2787C0 26.7869 0.722394 24.1393 2.16718 21.3361C3.71517 18.429 5.57275 14.7951 7.73994 10.4344L12.8483 0H22.1362L9.75232 22.582ZM37.6161 22.582C40.0929 22.7896 41.9505 23.6202 43.1889 25.0738C44.4272 26.4235 45.0464 28.0328 45.0464 29.9016C45.0464 32.2896 44.2208 34.2623 42.5697 35.8197C40.9185 37.2732 39.0093 38 36.8421 38C34.1589 38 31.9917 37.1694 30.3406 35.5082C28.6894 33.847 27.8638 31.7705 27.8638 29.2787C27.8638 26.7869 28.5862 24.1393 30.031 21.3361C31.5789 18.429 33.4365 14.7951 35.6037 10.4344L40.7121 0H50L37.6161 22.582Z" fill="#EF4D30"/>
</svg>
