<svg width="80" height="100" viewBox="0 0 80 100" fill="none" xmlns="http://www.w3.org/2000/svg">
<g clip-path="url(#clip0_2226_1090)">
<path d="M18.8201 0.135498H49.7986C52.0405 0.135498 53.8451 1.95708 53.8451 4.22012C53.8451 6.48339 52.0405 8.30497 49.7986 8.30497H18.8201C16.578 8.30497 14.7734 6.48339 14.7734 4.22012C14.7734 1.95708 16.578 0.135498 18.8201 0.135498Z" fill="#424D80"/>
<path d="M5.00287 3.86792H63.6101C66.187 3.86792 68.2616 5.96254 68.2616 8.56309V87.4436C68.2616 90.0445 66.187 92.1387 63.6101 92.1387H5.00287C2.42596 92.1387 0.351562 90.0445 0.351562 87.4436V8.56309C0.351562 5.96254 2.42596 3.86792 5.00287 3.86792Z" fill="#424D80"/>
<path d="M9.54786 10.7085H59.0719C61.2493 10.7085 63.0026 12.4777 63.0026 14.6756V81.3307C63.0026 83.5288 61.2493 85.2985 59.0719 85.2985H9.54786C7.37027 85.2985 5.61719 83.5288 5.61719 81.3307V14.6756C5.61719 12.4777 7.37027 10.7085 9.54786 10.7085Z" fill="url(#paint0_linear_2226_1090)"/>
<path d="M21.4175 3H47.5821C49.4761 3 51 4.33816 51 5.9999C51 7.66223 49.4761 9 47.5821 9H21.4175C19.5242 9 18 7.66223 18 5.9999C18 4.33816 19.5242 3 21.4175 3Z" fill="#242F62"/>
<path d="M20.8962 26.5068H55.9247C56.4259 26.5068 56.8292 26.9139 56.8292 27.4194C56.8292 27.9253 56.4259 28.3324 55.9247 28.3324H20.8962C20.3955 28.3324 19.9922 27.9253 19.9922 27.4194C19.9922 26.9139 20.3955 26.5068 20.8962 26.5068Z" fill="#F2FAFF" fill-opacity="0.3"/>
<path d="M20.8962 34.1426H55.9247C56.4259 34.1426 56.8292 34.5503 56.8292 35.0556C56.8292 35.5615 56.4259 35.9688 55.9247 35.9688H20.8962C20.3955 35.9688 19.9922 35.5615 19.9922 35.0556C19.9922 34.5503 20.3955 34.1426 20.8962 34.1426Z" fill="#F2FAFF" fill-opacity="0.3"/>
<path d="M20.8962 42.2771H55.9247C56.4259 42.2771 56.8292 42.6838 56.8292 43.1901C56.8292 43.6956 56.4259 44.1027 55.9247 44.1027H20.8962C20.3955 44.1027 19.9922 43.6956 19.9922 43.1901C19.9922 42.6838 20.3955 42.2771 20.8962 42.2771Z" fill="#F2FAFF" fill-opacity="0.3"/>
<path d="M20.8962 49.9133H55.9247C56.4259 49.9133 56.8292 50.32 56.8292 50.8259C56.8292 51.3318 56.4259 51.7392 55.9247 51.7392H20.8962C20.3955 51.7392 19.9922 51.3318 19.9922 50.8259C19.9922 50.32 20.3955 49.9133 20.8962 49.9133Z" fill="#F2FAFF" fill-opacity="0.3"/>
<path d="M11.7739 24.4441C11.3127 24.4441 10.9258 24.8347 10.9258 25.3002V28.0663C10.9258 28.5312 11.3127 28.9213 11.7739 28.9213H15.0951C15.5563 28.9213 15.9426 28.5312 15.9426 28.0663V25.3002C15.9426 24.8347 15.5563 24.4441 15.0951 24.4441H11.7739ZM11.9531 25.4818H14.9152V27.8849H11.9531V25.4818Z" fill="#EF4D30"/>
<path d="M19.1154 22.856C19.3015 23.1108 19.2478 23.4677 18.9954 23.6555L13.8463 27.4867C13.5934 27.6746 13.2399 27.6204 13.0542 27.3656L11.2751 24.929C11.089 24.6743 11.142 24.3174 11.3951 24.1295C11.6472 23.9415 12.0004 23.9959 12.1864 24.2505L13.6297 26.2271L18.3234 22.7349C18.5758 22.5471 18.9287 22.6013 19.1154 22.856Z" fill="#DE4023"/>
<path d="M11.7739 32.0735C11.3127 32.0735 10.9258 32.4645 10.9258 32.9294V35.6957C10.9258 36.161 11.3127 36.5512 11.7739 36.5512H15.0951C15.5563 36.5512 15.9426 36.161 15.9426 35.6957V32.9294C15.9426 32.4645 15.5563 32.0735 15.0951 32.0735H11.7739ZM11.9531 33.111H14.9152V35.5143H11.9531V33.111Z" fill="#EF4D30"/>
<path d="M19.1154 30.4861C19.3015 30.7412 19.2478 31.0977 18.9954 31.2855L13.8463 35.1168C13.5934 35.3041 13.2399 35.2504 13.0542 34.9956L11.2751 32.559C11.089 32.3043 11.142 31.9474 11.3951 31.7596C11.6472 31.5717 12.0004 31.6259 12.1864 31.8807L13.6297 33.8571L18.3234 30.3649C18.5758 30.1771 18.9287 30.2309 19.1154 30.4861Z" fill="#DE4023"/>
<path d="M11.7739 40.0559C11.3127 40.0559 10.9258 40.4469 10.9258 40.9118V43.6781C10.9258 44.1428 11.3127 44.5329 11.7739 44.5329H15.0951C15.5563 44.5329 15.9426 44.1428 15.9426 43.6781V40.9118C15.9426 40.4469 15.5563 40.0559 15.0951 40.0559H11.7739ZM11.9531 41.0934H14.9152V43.4968H11.9531V41.0934Z" fill="#EF4D30"/>
<path d="M19.1154 38.4676C19.3015 38.7228 19.2478 39.0793 18.9954 39.2671L13.8463 43.0983C13.5934 43.2861 13.2399 43.2326 13.0542 42.9772L11.2751 40.5406C11.089 40.2859 11.142 39.9296 11.3951 39.7411C11.6472 39.5533 12.0004 39.6075 12.1864 39.8627L13.6297 41.8386L18.3234 38.3465C18.5758 38.1587 18.9287 38.2129 19.1154 38.4676Z" fill="#DE4023"/>
<path d="M11.7739 47.6858C11.3127 47.6858 10.9258 48.0764 10.9258 48.5417V51.308C10.9258 51.7729 11.3127 52.1628 11.7739 52.1628H15.0951C15.5563 52.1628 15.9426 51.7729 15.9426 51.308V48.5417C15.9426 48.0764 15.5563 47.6858 15.0951 47.6858H11.7739ZM11.9531 48.7228H14.9152V51.126H11.9531V48.7228Z" fill="#EF4D30"/>
<path d="M19.1154 46.0976C19.3015 46.3523 19.2478 46.7092 18.9954 46.8971L13.8463 50.7283C13.5934 50.9163 13.2399 50.8619 13.0542 50.6074L11.2751 48.1706C11.089 47.9158 11.142 47.5589 11.3951 47.3711C11.6472 47.1833 12.0004 47.2375 12.1864 47.4922L13.6297 49.4686L18.3234 45.9767C18.5758 45.7886 18.9287 45.8424 19.1154 46.0976Z" fill="#DE4023"/>
<g filter="url(#filter0_d_2226_1090)">
<path d="M57.2887 38.7446L34.6735 46.3961C34.1325 49.377 34.5342 63.2167 37.1863 72.6512C39.344 80.3277 44.8203 87.709 57.2887 92.9385C69.7578 87.709 75.2341 80.3277 77.3918 72.6512C80.0439 63.2167 80.4456 49.377 79.9046 46.3961L57.2887 38.7446Z" fill="url(#paint1_linear_2226_1090)"/>
</g>
<path d="M57.3984 86.9497C67.0542 82.8698 71.3049 77.1282 72.9828 71.1577C75.0534 63.7922 75.3668 52.9874 74.9449 50.6603L57.3984 44.7229V86.9497Z" fill="#EF4D30"/>
<path d="M57.3981 86.9497V44.7229L57.2883 44.6865L39.6315 50.6603C39.2094 52.9874 39.5228 63.7922 41.5934 71.1584C43.2776 77.1512 47.5539 82.9142 57.2883 86.997C57.3256 86.9814 57.3612 86.9655 57.3981 86.9499V86.9497Z" fill="#EF4D30"/>
<path d="M61.8734 56.3943C61.8734 57.7254 61.3497 59.0018 60.4173 59.9433C59.485 60.8845 58.2201 61.4134 56.9014 61.4134C55.5826 61.4134 54.3183 60.8845 53.386 59.9433C52.453 59.0018 51.9297 57.7254 51.9297 56.3943C51.9297 55.063 52.453 53.7862 53.386 52.845C54.3183 51.9039 55.5826 51.3752 56.9014 51.3752C58.2201 51.3752 59.485 51.9039 60.4173 52.845C61.3497 53.7862 61.8734 55.063 61.8734 56.3943Z" fill="white"/>
<path d="M67.8728 69.7964C67.8728 73.9303 62.9629 73.5386 56.9052 73.5386C50.848 73.5386 45.9375 73.9303 45.9375 69.7964C45.9375 65.6631 52.4811 62.2493 56.9052 62.2493C61.3296 62.2493 67.8728 65.6631 67.8728 69.7964Z" fill="white"/>
</g>
<defs>
<filter id="filter0_d_2226_1090" x="1.46484" y="13.7446" width="83.6484" height="92.1938" filterUnits="userSpaceOnUse" color-interpolation-filters="sRGB">
<feFlood flood-opacity="0" result="BackgroundImageFix"/>
<feColorMatrix in="SourceAlpha" type="matrix" values="0 0 0 0 0 0 0 0 0 0 0 0 0 0 0 0 0 0 127 0" result="hardAlpha"/>
<feOffset dx="-14" dy="-6"/>
<feGaussianBlur stdDeviation="9.5"/>
<feComposite in2="hardAlpha" operator="out"/>
<feColorMatrix type="matrix" values="0 0 0 0 0.937255 0 0 0 0 0.301961 0 0 0 0 0.188235 0 0 0 0.35 0"/>
<feBlend mode="normal" in2="BackgroundImageFix" result="effect1_dropShadow_2226_1090"/>
<feBlend mode="normal" in="SourceGraphic" in2="effect1_dropShadow_2226_1090" result="shape"/>
</filter>
<linearGradient id="paint0_linear_2226_1090" x1="34.3099" y1="10.7085" x2="34.3099" y2="85.2985" gradientUnits="userSpaceOnUse">
<stop stop-color="white" stop-opacity="0.12"/>
<stop offset="1" stop-color="white" stop-opacity="0.02"/>
</linearGradient>
<linearGradient id="paint1_linear_2226_1090" x1="57.2891" y1="38.7446" x2="57.2891" y2="92.9385" gradientUnits="userSpaceOnUse">
<stop stop-color="#EF4D30"/>
<stop offset="1" stop-color="#FF7558"/>
</linearGradient>
<clipPath id="clip0_2226_1090">
<rect width="80" height="100" fill="white"/>
</clipPath>
</defs>
</svg>
