<svg width="232" height="60" viewBox="0 0 232 60" fill="none" xmlns="http://www.w3.org/2000/svg">
<g clip-path="url(#clip0_2226_2602)">
<path d="M20.7353 23.1596C20.8457 23.1963 20.956 23.2207 21.0664 23.2573C23.482 24.0147 25.8241 24.943 28.0436 26.2256C30.4715 27.6669 33.6106 26.873 35.0452 24.4544C37.7061 19.8738 32.5683 14.8412 28.0436 17.4796C25.8241 18.75 23.482 19.6783 21.0664 20.4479C20.9683 20.4845 20.8579 20.509 20.7598 20.5334L32.4947 12.1417L37.2034 3.33469L28.3624 8.02525L19.9015 19.7638C19.9383 19.6417 19.9751 19.5073 20.0118 19.3852C20.7721 16.9788 21.704 14.6458 22.9915 12.4349C24.4385 10.0163 23.6414 6.88925 21.2135 5.4601C16.6152 2.80945 11.5632 7.92753 14.2118 12.4349C15.4871 14.6458 16.419 16.9788 17.1915 19.3852C17.2283 19.4951 17.2651 19.6173 17.2896 19.7272L8.84101 8.01303L0 3.32248L4.70867 12.1295L16.4558 20.5334C16.3455 20.4967 16.2228 20.4723 16.1125 20.4357C13.6968 19.6783 11.3548 18.75 9.13531 17.4674C4.61057 14.829 -0.539535 19.8616 2.13362 24.4422C3.58055 26.8608 6.7074 27.6547 9.13531 26.2134C11.3548 24.943 13.6968 24.0147 16.1125 23.2451C16.2351 23.2085 16.37 23.1718 16.4926 23.1352L4.70867 31.5635L0 40.3705L8.84101 35.68L17.2651 23.9902C17.2406 24.088 17.2038 24.1979 17.1793 24.2956C16.419 26.702 15.4871 29.035 14.1996 31.2459C11.551 35.7533 16.603 40.8836 21.2013 38.2207C23.6292 36.7793 24.4262 33.6645 22.9793 31.2459C21.704 29.035 20.7721 26.702 19.9996 24.2956C19.9628 24.1857 19.9383 24.0757 19.9015 23.9658L28.3501 35.68L37.1911 40.3705L32.4825 31.5635L20.723 23.1474L20.7353 23.1596Z" fill="#C9CBE2"/>
<path d="M50.8275 55.5293C50.337 55.3094 49.9079 55.0285 49.5523 54.6498C49.1967 54.2834 48.9269 53.8436 48.743 53.355C48.559 52.8664 48.4609 52.3412 48.4609 51.7793C48.4609 51.1563 48.559 50.6067 48.7798 50.1181C48.9882 49.6295 49.2702 49.2142 49.6381 48.8721C50.006 48.5301 50.4351 48.2736 50.9134 48.0904C51.3916 47.9072 51.9189 47.8217 52.4707 47.8217C52.7527 47.8217 53.0347 47.8461 53.3045 47.8949C53.5743 47.9438 53.8318 48.0171 54.0893 48.1148C54.3345 48.2125 54.5798 48.3225 54.8127 48.469C55.0457 48.6156 55.2542 48.7744 55.4504 48.9699L54.9108 49.6661C54.6165 49.3485 54.2487 49.092 53.8318 48.921C53.4026 48.75 52.9611 48.6645 52.4829 48.6645C52.066 48.6645 51.6614 48.7256 51.2935 48.8599C50.9256 48.9943 50.5946 49.1897 50.3125 49.4585C50.0305 49.7272 49.8098 50.057 49.6381 50.4357C49.4664 50.8143 49.3929 51.2663 49.3929 51.7671C49.3929 52.2679 49.4787 52.6832 49.6381 53.0741C49.7975 53.4772 50.0182 53.8192 50.3003 54.1002C50.5823 54.3811 50.9134 54.601 51.3058 54.7598C51.6981 54.9186 52.1151 54.9918 52.5688 54.9918C53.096 54.9918 53.562 54.8941 53.9789 54.7109C54.3958 54.5155 54.7269 54.2712 54.9844 53.9658L55.5607 54.5399C55.2419 54.9063 54.825 55.2117 54.31 55.4682C53.8072 55.7125 53.2064 55.8469 52.5074 55.8469C51.8821 55.8469 51.3303 55.737 50.8275 55.5293Z" fill="#C9CBE2"/>
<path d="M59.2388 48.8233H56.627V47.9805H62.7703V48.8233H60.1585V55.7125H59.2511V48.8233H59.2388Z" fill="#C9CBE2"/>
<path d="M63.7271 48.0537V47.9805H64.7081L67.5039 54.491L67.0869 55.8469L63.7148 48.0537H63.7271ZM65.2721 59.8534L69.8582 47.9805H70.7778V48.0537L66.155 59.9878H65.2721V59.8412V59.8534Z" fill="#C9CBE2"/>
<path d="M70.8521 54.8697H79.1658V57.728H78.283V55.7125H71.7227V57.728H70.8398V54.8697H70.8521ZM72.1887 54.0513C72.3236 53.6726 72.4339 53.2573 72.5198 52.8176C72.6056 52.3779 72.6669 51.9137 72.7037 51.4129C72.7405 50.9121 72.765 50.4112 72.765 49.886V47.9805H77.8661V55.0896H76.9587V48.4813L77.3878 48.8233H73.2678L73.6479 48.4813V50.1792C73.6479 50.6067 73.6356 51.0342 73.5988 51.4739C73.5743 51.9137 73.513 52.329 73.4517 52.7443C73.3781 53.1596 73.28 53.5627 73.1574 53.9658C73.0348 54.3689 72.8754 54.7476 72.6792 55.1018L71.6737 55.0529C71.8821 54.772 72.0415 54.43 72.1887 54.0513Z" fill="#C9CBE2"/>
<path d="M80.5748 47.9805H81.4822V54.3567L81.0285 54.3933L86.62 47.9805H86.9633V55.7125H86.0437V49.2508L86.6568 49.1042L80.9058 55.7125H80.5625V47.9805H80.5748Z" fill="#C9CBE2"/>
<path d="M88.8516 55.5904L91.6841 52.219L92.7387 52.3045L89.9061 55.7125H88.8516V55.5904ZM94.1488 52.8054H92.3708C91.3776 52.8054 90.6051 52.6221 90.0533 52.2435C89.5015 51.8648 89.2194 51.2541 89.2194 50.4112C89.2194 49.5684 89.5015 48.9454 90.0778 48.5668C90.6541 48.1759 91.4757 47.9927 92.5547 47.9927H95.0807V55.7247H94.1488V52.8176V52.8054ZM94.1488 51.987V48.8233H92.6283C92.2237 48.8233 91.8681 48.8477 91.5492 48.8966C91.2304 48.9454 90.9729 49.0309 90.7645 49.1409C90.556 49.263 90.3966 49.4218 90.2862 49.6295C90.1881 49.8371 90.1391 50.1059 90.1391 50.4234C90.1391 51.0098 90.3353 51.4129 90.7154 51.6327C91.1078 51.8526 91.6841 51.9747 92.4444 51.9747H94.1488V51.987Z" fill="#C9CBE2"/>
<path d="M102.021 53.7337V47.9805H102.929V55.7125H102.021V53.7337ZM102.34 51.2296H103.849V52.0358H102.34V51.2296ZM103.309 51.6572L106.718 47.9805H107.736V48.1026L104.498 51.535L108.496 55.5904V55.7125H107.405L103.321 51.6572H103.309Z" fill="#C9CBE2"/>
<path d="M111.28 55.5537C110.802 55.3461 110.397 55.0651 110.042 54.7109C109.686 54.3445 109.416 53.9169 109.22 53.4283C109.024 52.9397 108.926 52.3901 108.926 51.816C108.926 51.2419 109.024 50.7166 109.22 50.228C109.416 49.7394 109.698 49.3241 110.042 48.9699C110.397 48.6156 110.802 48.3469 111.28 48.1515C111.746 47.956 112.261 47.8583 112.813 47.8583C113.365 47.8583 113.855 47.956 114.321 48.1515C114.787 48.3469 115.204 48.6279 115.547 48.9699C115.891 49.3241 116.16 49.7394 116.357 50.2158C116.553 50.6922 116.651 51.2296 116.651 51.816C116.651 52.4023 116.553 52.9397 116.357 53.4283C116.16 53.9169 115.891 54.3445 115.547 54.7109C115.204 55.0774 114.787 55.3583 114.321 55.5537C113.843 55.7614 113.34 55.8591 112.813 55.8591C112.286 55.8591 111.758 55.7614 111.28 55.5537ZM113.99 54.772C114.358 54.6132 114.664 54.3933 114.934 54.1124C115.192 53.8314 115.4 53.5016 115.547 53.0985C115.694 52.7077 115.768 52.2679 115.768 51.7915C115.768 51.3151 115.694 50.8876 115.547 50.509C115.4 50.1303 115.192 49.8005 114.934 49.5318C114.677 49.263 114.358 49.0432 113.99 48.8966C113.622 48.75 113.23 48.6767 112.813 48.6767C112.396 48.6767 111.991 48.75 111.623 48.8966C111.256 49.0432 110.949 49.2508 110.679 49.5318C110.422 49.8005 110.213 50.1303 110.066 50.509C109.919 50.8876 109.845 51.3151 109.845 51.7915C109.845 52.2679 109.919 52.7077 110.066 53.0985C110.213 53.4894 110.422 53.8314 110.679 54.1124C110.937 54.3933 111.256 54.6132 111.623 54.772C111.991 54.9308 112.384 55.0163 112.813 55.0163C113.242 55.0163 113.622 54.9308 113.99 54.772Z" fill="#C9CBE2"/>
<path d="M120.525 55.5293C120.034 55.3094 119.605 55.0285 119.25 54.6498C118.894 54.2834 118.624 53.8436 118.44 53.355C118.256 52.8664 118.158 52.3412 118.158 51.7793C118.158 51.1563 118.256 50.6067 118.477 50.1181C118.685 49.6295 118.968 49.2142 119.335 48.8721C119.703 48.5301 120.132 48.2736 120.611 48.0904C121.089 47.9072 121.616 47.8217 122.168 47.8217C122.45 47.8217 122.732 47.8461 123.002 47.8949C123.272 47.9438 123.529 48.0171 123.787 48.1148C124.032 48.2125 124.277 48.3225 124.51 48.469C124.743 48.6156 124.951 48.7744 125.148 48.9699L124.608 49.6661C124.314 49.3485 123.946 49.092 123.529 48.921C123.1 48.75 122.658 48.6645 122.18 48.6645C121.763 48.6645 121.359 48.7256 120.991 48.8599C120.623 48.9943 120.292 49.1897 120.01 49.4585C119.728 49.7272 119.507 50.057 119.335 50.4357C119.164 50.8143 119.09 51.2663 119.09 51.7671C119.09 52.2679 119.176 52.6832 119.335 53.0741C119.495 53.4772 119.715 53.8192 119.998 54.1002C120.28 54.3811 120.611 54.601 121.003 54.7598C121.395 54.9186 121.812 54.9918 122.266 54.9918C122.793 54.9918 123.259 54.8941 123.676 54.7109C124.093 54.5155 124.424 54.2712 124.682 53.9658L125.258 54.5399C124.939 54.9063 124.522 55.2117 124.007 55.4682C123.504 55.7125 122.904 55.8469 122.205 55.8469C121.579 55.8469 121.028 55.737 120.525 55.5293Z" fill="#C9CBE2"/>
<path d="M127.981 47.9804H128.373L131.206 54.0269L133.952 47.9804H134.333L135.718 55.7125H134.835L133.867 50.0326L131.255 55.7614H131.108L128.459 50.1547L127.49 55.7003H126.607L127.993 47.9682L127.981 47.9804Z" fill="#C9CBE2"/>
<path d="M139.373 55.566C138.895 55.3705 138.466 55.0896 138.11 54.7476C137.755 54.4055 137.473 53.9658 137.264 53.4772C137.056 52.9764 136.945 52.4145 136.945 51.8037C136.945 51.193 137.056 50.6311 137.276 50.1425C137.497 49.6539 137.791 49.2386 138.159 48.8966C138.527 48.5546 138.944 48.298 139.41 48.1148C139.876 47.9316 140.354 47.8461 140.857 47.8461C141.47 47.8461 141.997 47.956 142.463 48.1637C142.917 48.3835 143.309 48.6645 143.616 49.0065C143.922 49.3607 144.155 49.7516 144.315 50.1792C144.474 50.6189 144.548 51.0464 144.548 51.4862V51.9625H137.644V51.1563H144.057L143.628 51.8037V51.4984C143.628 51.1197 143.567 50.7533 143.444 50.4234C143.322 50.0814 143.138 49.7883 142.892 49.5195C142.647 49.263 142.365 49.0554 142.01 48.8966C141.666 48.7378 141.274 48.6645 140.832 48.6645C140.428 48.6645 140.035 48.7378 139.68 48.8844C139.312 49.0309 139.005 49.2508 138.736 49.5318C138.466 49.8127 138.257 50.1425 138.098 50.5212C137.939 50.8998 137.865 51.3274 137.865 51.7915C137.865 52.2557 137.951 52.7077 138.11 53.0985C138.27 53.4894 138.503 53.8314 138.785 54.1124C139.067 54.3933 139.398 54.6132 139.778 54.7598C140.158 54.9186 140.563 54.9919 140.98 54.9919C141.544 54.9919 142.046 54.8819 142.5 54.662C142.954 54.4422 143.334 54.149 143.653 53.7948L144.266 54.3445C143.837 54.8575 143.334 55.2362 142.758 55.4682C142.181 55.7003 141.58 55.8225 140.943 55.8225C140.379 55.8225 139.864 55.7248 139.373 55.5293V55.566Z" fill="#C9CBE2"/>
<path d="M147.846 48.8233H145.234V47.9805H151.378V48.8233H148.766V55.7125H147.858V48.8233H147.846Z" fill="#C9CBE2"/>
<path d="M154.431 55.5537C153.952 55.3461 153.548 55.0651 153.192 54.7109C152.836 54.3445 152.567 53.9169 152.37 53.4283C152.174 52.9397 152.076 52.3901 152.076 51.816C152.076 51.2419 152.174 50.7166 152.37 50.228C152.567 49.7394 152.849 49.3241 153.192 48.9699C153.548 48.6156 153.952 48.3469 154.431 48.1515C154.896 47.956 155.411 47.8583 155.963 47.8583C156.515 47.8583 157.006 47.956 157.472 48.1515C157.937 48.3469 158.354 48.6279 158.698 48.9699C159.041 49.3241 159.311 49.7394 159.507 50.2158C159.703 50.6922 159.801 51.2296 159.801 51.816C159.801 52.4023 159.703 52.9397 159.507 53.4283C159.311 53.9169 159.041 54.3445 158.698 54.7109C158.354 55.0774 157.937 55.3583 157.472 55.5537C156.993 55.7614 156.491 55.8591 155.963 55.8591C155.436 55.8591 154.909 55.7614 154.431 55.5537ZM157.14 54.772C157.508 54.6132 157.815 54.3933 158.085 54.1124C158.342 53.8314 158.551 53.5016 158.698 53.0985C158.845 52.7077 158.918 52.2679 158.918 51.7915C158.918 51.3151 158.845 50.8876 158.698 50.509C158.551 50.1303 158.342 49.8005 158.085 49.5318C157.827 49.263 157.508 49.0432 157.14 48.8966C156.773 48.75 156.38 48.6767 155.963 48.6767C155.546 48.6767 155.142 48.75 154.774 48.8966C154.406 49.0432 154.099 49.2508 153.83 49.5318C153.572 49.8005 153.364 50.1303 153.217 50.509C153.069 50.8876 152.996 51.3151 152.996 51.7915C152.996 52.2679 153.069 52.7077 153.217 53.0985C153.364 53.4894 153.572 53.8314 153.83 54.1124C154.087 54.3933 154.406 54.6132 154.774 54.772C155.142 54.9308 155.534 55.0163 155.963 55.0163C156.392 55.0163 156.773 54.9308 157.14 54.772Z" fill="#C9CBE2"/>
<path d="M160.599 55.7858C160.599 55.7858 160.501 55.7614 160.477 55.7492V54.8086C160.477 54.8086 160.55 54.8208 160.587 54.8208H160.722C160.857 54.8208 160.992 54.772 161.139 54.6743C161.286 54.5765 161.421 54.3567 161.556 54.0391C161.678 53.7215 161.789 53.2573 161.874 52.6588C161.96 52.0603 161.997 51.2541 161.997 50.2524V47.9805H167V55.7125H166.068V48.8233H162.88V50.7288C162.88 51.6938 162.831 52.5 162.721 53.1474C162.61 53.7948 162.463 54.32 162.267 54.6987C162.071 55.0896 161.862 55.3705 161.617 55.5415C161.372 55.7125 161.114 55.798 160.832 55.798C160.734 55.798 160.661 55.798 160.599 55.7858Z" fill="#C9CBE2"/>
<path d="M171.241 55.5537C170.763 55.3461 170.358 55.0651 170.003 54.7109C169.647 54.3445 169.377 53.9169 169.181 53.4283C168.985 52.9397 168.887 52.3901 168.887 51.816C168.887 51.2419 168.985 50.7166 169.181 50.228C169.377 49.7394 169.659 49.3241 170.003 48.9699C170.358 48.6156 170.763 48.3469 171.241 48.1515C171.707 47.956 172.222 47.8583 172.774 47.8583C173.326 47.8583 173.816 47.956 174.282 48.1515C174.748 48.3469 175.165 48.6279 175.508 48.9699C175.852 49.3241 176.121 49.7394 176.318 50.2158C176.514 50.6922 176.612 51.2296 176.612 51.816C176.612 52.4023 176.514 52.9397 176.318 53.4283C176.121 53.9169 175.852 54.3445 175.508 54.7109C175.165 55.0774 174.748 55.3583 174.282 55.5537C173.804 55.7614 173.301 55.8591 172.774 55.8591C172.247 55.8591 171.719 55.7614 171.241 55.5537ZM173.951 54.772C174.319 54.6132 174.625 54.3933 174.895 54.1124C175.153 53.8314 175.361 53.5016 175.508 53.0985C175.655 52.7077 175.729 52.2679 175.729 51.7915C175.729 51.3151 175.655 50.8876 175.508 50.509C175.361 50.1303 175.153 49.8005 174.895 49.5318C174.638 49.263 174.319 49.0432 173.951 48.8966C173.583 48.75 173.191 48.6767 172.774 48.6767C172.357 48.6767 171.952 48.75 171.584 48.8966C171.217 49.0432 170.91 49.2508 170.64 49.5318C170.383 49.8005 170.174 50.1303 170.027 50.509C169.88 50.8876 169.806 51.3151 169.806 51.7915C169.806 52.2679 169.88 52.7077 170.027 53.0985C170.174 53.4894 170.383 53.8314 170.64 54.1124C170.898 54.3933 171.217 54.6132 171.584 54.772C171.952 54.9308 172.345 55.0163 172.774 55.0163C173.203 55.0163 173.583 54.9308 173.951 54.772Z" fill="#C9CBE2"/>
<path d="M178.514 47.9805H183.406V48.8233H179.433V55.7125H178.526V47.9805H178.514Z" fill="#C9CBE2"/>
<path d="M185.184 47.9805H186.092V54.3567L185.638 54.3933L191.229 47.9805H191.573V55.7125H190.653V49.2508L191.266 49.1042L185.515 55.7125H185.172V47.9805H185.184Z" fill="#C9CBE2"/>
<path d="M193.866 47.9805H194.773V54.3567L194.319 54.3933L199.911 47.9805H200.254V55.7125H199.335V49.2508L199.948 49.1042L194.197 55.7125H193.854V47.9805H193.866Z" fill="#C9CBE2"/>
<path d="M231.792 32.1376C229.671 30.3665 228.727 28.4853 226.765 23.9169L220.818 9.96743H215.888L217.629 14.0839L213.742 23.7459C213.178 25.1384 212.626 26.3111 212.075 27.3249C211.621 26.3722 211.13 25.2728 210.542 23.9169L204.595 9.96743H199.665L201.407 14.0839L197.519 23.7459C195.766 28.0823 194.147 30.2565 192.259 32.1743L192.1 32.3453V33.5179H198.758V32.3086L198.549 32.1376C196.943 30.7818 197.017 28.864 198.893 24.2101L202.216 15.9772L207.231 27.6669C208.371 30.4275 208.531 31.2459 207.624 32.1865L207.464 32.3453V33.5179H215.753V32.3086L215.545 32.1376C214.797 31.5147 214.184 30.8673 213.632 30.0977C213.485 28.8029 213.963 27.0073 215.091 24.2223L218.414 15.9894L223.429 27.6792C224.57 30.4397 224.729 31.2582 223.822 32.1987L223.662 32.3575V33.5301H231.952V32.3209L231.743 32.1498L231.792 32.1376Z" fill="#C9CBE2"/>
<path d="M140.462 9.79642C137.618 9.79642 134.736 10.7125 132.394 12.4226C134.037 10.4072 136.404 8.46498 138.905 7.13355C139.898 6.62052 141.235 6.07085 142.645 5.48453C145.539 4.28746 148.887 2.89495 150.922 1.24593V0.732899L149.622 -0.0122147C149.549 0.0366453 149.487 0.0732902 149.402 0.12215C147.354 1.36808 144.987 2.10098 142.694 2.79723C142.13 2.96824 141.566 3.13925 141.014 3.32248C136.919 4.73941 132.75 6.63274 130.064 10.9324C128.495 13.4731 127.575 16.6246 127.33 20.2891C127.317 20.5334 127.207 22.1091 127.207 22.6954C127.207 29.1205 132.247 33.6034 139.469 33.6034C145.833 33.6034 152.712 28.6686 152.712 20.6922C152.712 14.377 147.562 9.7842 140.45 9.7842L140.462 9.79642ZM142.915 31.6612C140.977 32.2353 139.126 32.0521 137.409 31.1238C135.079 29.8656 133.203 27.2761 132.259 24.0391C130.849 19.1897 131.732 13.2655 137.017 11.7508C137.752 11.5432 138.464 11.4332 139.15 11.4332C143.393 11.4332 146.483 15.2809 147.673 19.373C149.083 24.2223 148.2 30.1466 142.915 31.6612Z" fill="#C9CBE2"/>
<path d="M166.631 32.3453V33.5179H174.92V32.3086L174.712 32.1376C172.591 30.3665 171.646 28.4853 169.684 23.9169L163.737 9.96743H158.808L160.549 14.0839L156.662 23.7459C154.909 28.0823 153.29 30.2565 151.402 32.1743L151.242 32.3453V33.5179H157.901V32.3086L157.692 32.1376C156.086 30.7818 156.159 28.864 158.035 24.2101L161.358 15.9772L166.374 27.6669C167.514 30.4275 167.673 31.2459 166.766 32.1865L166.607 32.3453H166.631Z" fill="#C9CBE2"/>
<path d="M196.01 11.1523V9.97964H189.352V11.1889L189.56 11.3599C191.375 12.8502 190.897 15.0977 189.205 19.2752L185.882 27.5081L180.866 15.8184C179.775 13.1678 179.591 12.2516 180.474 11.2989L180.621 11.1401V9.97964H172.332V11.1889L172.541 11.3599C174.662 13.1189 175.606 15.0122 177.568 19.5806L183.454 33.3713C181.639 37.3656 180.572 38.3795 178.806 38.5871C178.279 38.6482 177.862 38.5016 177.531 38.1474C177.127 37.7199 176.881 37.048 176.759 36.2907L176.195 36.0586L173.313 38.5261C174.502 39.6254 176.023 40.1751 177.838 40.1751C182.056 40.1751 183.564 37.1336 185.158 33.1637C186.838 29.0228 190.578 19.7761 190.578 19.7516C192.332 15.4153 193.95 13.241 195.839 11.3233L195.998 11.1523H196.01Z" fill="#C9CBE2"/>
<path d="M68.6679 29.7191V18.1759C68.6679 12.0195 64.2413 9.83306 60.1089 9.83306C57.3499 9.83306 55.106 10.9446 53.7939 12.9479C52.7026 14.6213 52.3592 16.8567 52.8865 18.5668C48.6438 20.509 46.6941 23.8314 47.3931 28.009C48.092 31.8811 52.4205 33.6401 56.136 33.6401C59.5816 33.6401 62.1935 32.101 63.8366 29.145V33.3591H69.6979V32.1498L69.4159 31.9788C69.0358 31.7467 68.6679 31.3925 68.6679 29.7191ZM55.2163 13.7174C56.2341 12.2638 57.8527 11.4332 59.6797 11.4332C63.2235 11.4332 63.763 15.3664 63.8244 17.1132C63.0764 16.9422 62.3406 16.8567 61.5926 16.8567C60.1089 16.8567 57.3009 17.0033 54.4315 17.956C54.0514 16.5024 54.3334 14.9756 55.2163 13.7174ZM63.8366 25.3583C63.1622 27.728 61.4087 31.6612 57.2151 31.9055C55.2163 32.0155 52.7026 30.7329 52.1508 28.4243C51.4764 25.6637 51.8074 23.4039 53.144 21.706C55.5474 18.6523 60.2193 18.4202 61.5926 18.4202C62.5614 18.4202 63.3707 18.579 63.8244 18.6889V25.3583H63.8366Z" fill="#C9CBE2"/>
<path d="M83.4202 7.64658C86.8904 7.64658 89.1467 5.31352 89.4532 1.39251L89.5023 0.781761H88.1289L88.0063 1.19707C87.3441 3.48127 86.0076 4.42183 83.408 4.42183C80.8084 4.42183 79.4718 3.45684 78.8587 1.20929L78.7484 0.793976H77.375L77.4118 1.39251C77.6693 5.25245 79.9623 7.64658 83.408 7.64658H83.4202Z" fill="#C9CBE2"/>
<path d="M120.231 26.079C118.33 29.3893 115.681 31.3681 112.763 31.6612C108.238 32.1132 104.572 29.6213 102.929 25.0041C101.813 21.8404 102.083 18.0171 103.615 15.2565C104.719 13.2533 106.374 11.9585 108.41 11.5065C112.322 10.5904 116.601 14.1694 117.705 16.9422L117.852 17.2964H118.992L119.851 12.557L119.483 12.3616C117.128 11.1401 113.278 9.83306 110.384 9.83306C107.49 9.83306 103.652 10.8958 100.746 13.8884C100.636 13.9984 100.538 14.1205 100.427 14.2427C98.6125 15.3542 97.0062 16.8078 95.7309 18.5057C94.6763 19.9226 93.9161 21.4007 93.3643 22.842V9.83306H92.4692L87.503 10.9691V12.2272L87.9812 12.3005C88.3859 12.3616 88.533 12.386 88.533 13.9739V17.5651C88.533 22.3901 87.3313 30.794 82.8311 31.6735C81.4577 31.93 80.2928 31.6735 79.3732 30.9039C78.1102 29.8534 77.3867 27.9112 77.3867 25.566V9.82085H76.4916L71.5254 10.9568V12.215L72.0036 12.2883C72.4083 12.3493 72.5554 12.3738 72.5554 13.9617V24.8575C72.5554 30.1832 75.8049 33.6156 80.8324 33.6156C85.1977 33.6156 87.3804 30.6474 88.533 27.1417V33.3347H94.4434V32.1132L94.1491 31.9544C93.7322 31.7223 93.3643 31.3803 93.3643 29.7068V26.7875C93.7567 24.3811 94.6518 21.6327 96.5524 19.092C97.1901 18.2492 97.9136 17.4919 98.6861 16.7956C97.889 18.4324 97.5089 20.2647 97.5702 22.2191C97.6438 25.4805 98.8455 28.2777 101.028 30.2932C103.358 32.443 106.73 33.6401 110.396 33.6401C110.678 33.6401 110.973 33.6401 111.255 33.6156C115.657 33.3591 119.103 31.0505 121.494 26.763L121.776 26.25L120.488 25.6026L120.218 26.0668L120.231 26.079Z" fill="#C9CBE2"/>
</g>
<defs>
<clipPath id="clip0_2226_2602">
<rect width="232" height="60" fill="white"/>
</clipPath>
</defs>
</svg>
