<svg width="0" height="0" class="hidden">
  <symbol fill="none" xmlns="http://www.w3.org/2000/svg" viewBox="0 0 16 16" id="ic_arr_hor">
    <path d="M9.79357 12.778C9.52175 13.074 9.08108 13.074 8.8092 12.778L5.40726 9.07072C4.86406 8.47872 4.86428 7.5195 5.40774 6.92789L8.8117 3.22194C9.08358 2.92602 9.52426 2.92602 9.79614 3.22194C10.068 3.51786 10.068 3.9977 9.79614 4.29362L6.88264 7.46555C6.61082 7.76147 6.61082 8.24123 6.88264 8.53723L9.79357 11.7064C10.0654 12.0023 10.0654 12.4821 9.79357 12.778Z" fill="currentColor"></path>
  </symbol>
  <symbol fill="none" xmlns="http://www.w3.org/2000/svg" viewBox="0 0 16 16" id="ic_arr_ver">
    <path d="M3.22196 6.20643C2.92601 6.47825 2.92601 6.91892 3.22196 7.1908L6.92928 10.5927C7.52128 11.1359 8.4805 11.1357 9.07211 10.5923L12.7781 7.1883C13.074 6.91642 13.074 6.47574 12.7781 6.20386C12.4821 5.93205 12.0023 5.93205 11.7064 6.20386L8.53446 9.11736C8.23853 9.38918 7.75877 9.38918 7.46277 9.11736L4.29365 6.20643C3.99771 5.93455 3.51789 5.93455 3.22196 6.20643Z" fill="currentColor"></path>
  </symbol>
  <symbol fill="none" xmlns="http://www.w3.org/2000/svg" viewBox="0 0 16 16" id="ic_arrow_diagonal">
    <path d="M4.66536 4.66675L11.332 11.3334M11.332 11.3334L11.332 5.33342M11.332 11.3334L5.33203 11.3334" stroke="currentColor" stroke-width="1.6" stroke-linecap="round" stroke-linejoin="round"></path>
  </symbol>
  <symbol fill="none" xmlns="http://www.w3.org/2000/svg" viewBox="0 0 26 26" id="ic_arrow_hor">
    <path d="M20.6603 12.9998L5.33968 12.9998M5.33968 12.9998L12.234 19.8941M5.33968 12.9998L12.234 6.10554" stroke="currentColor" stroke-width="1.6" stroke-linecap="round" stroke-linejoin="round"></path>
  </symbol>
  <symbol fill="none" xmlns="http://www.w3.org/2000/svg" viewBox="0 0 26 26" id="ic_arrow_ver">
    <path d="M12.9998 5.34041L12.9998 20.6611M12.9998 20.6611L19.8941 13.7668M12.9998 20.6611L6.10554 13.7668" stroke="currentColor" stroke-width="1.6" stroke-linecap="round" stroke-linejoin="round"></path>
  </symbol>
  <symbol fill="none" xmlns="http://www.w3.org/2000/svg" viewBox="0 0 22 22" id="ic_check">
    <path d="M6.41797 11.0002L9.06782 13.65C9.12318 13.7052 9.21289 13.7053 9.26825 13.65L15.5846 7.3335" stroke="currentColor" stroke-width="2" stroke-linecap="round" stroke-linejoin="round"></path>
  </symbol>
  <symbol fill="none" xmlns="http://www.w3.org/2000/svg" viewBox="0 0 16 16" id="ic_close">
    <path d="M7.99984 7.05767L11.2997 3.75781L12.2425 4.70062L8.94264 8.00047L12.2425 11.3003L11.2997 12.2431L7.99984 8.94327L4.70002 12.2431L3.7572 11.3003L7.05704 8.00047L3.7572 4.70062L4.70002 3.75781L7.99984 7.05767Z" fill="currentColor"></path>
  </symbol>
  <symbol fill="none" xmlns="http://www.w3.org/2000/svg" viewBox="0 0 26 26" id="ic_email">
    <path fill-rule="evenodd" clip-rule="evenodd" d="M6.4647 4.33331H19.534C20.0092 4.3333 20.4192 4.33329 20.7586 4.35644C21.1159 4.38083 21.4733 4.43445 21.8265 4.5807C22.6227 4.91056 23.2555 5.54326 23.5852 6.33959C23.7315 6.69268 23.7851 7.05009 23.8096 7.4074C23.8327 7.74677 23.8327 8.15679 23.8327 8.63199V17.368C23.8327 17.8431 23.8327 18.2532 23.8096 18.5926C23.7851 18.9499 23.7315 19.3073 23.5852 19.6604C23.2555 20.4567 22.6227 21.0894 21.8265 21.4192C21.4733 21.5655 21.1159 21.6191 20.7586 21.6436C20.4192 21.6666 20.0092 21.6666 19.534 21.6666H6.46469C5.98949 21.6666 5.57947 21.6666 5.2401 21.6436C4.88279 21.6191 4.52539 21.5655 4.1723 21.4192C3.37596 21.0894 2.74326 20.4567 2.41341 19.6604C2.26716 19.3073 2.21353 18.9499 2.18915 18.5926C2.16599 18.2532 2.16601 17.8431 2.16602 17.368V8.632C2.16601 8.1568 2.16599 7.74677 2.18915 7.4074C2.21353 7.05009 2.26716 6.69268 2.41341 6.33959C2.74326 5.54326 3.37596 4.91056 4.1723 4.5807C4.52539 4.43445 4.88279 4.38083 5.2401 4.35644C5.57947 4.33329 5.9895 4.3333 6.4647 4.33331ZM4.67659 6.8009C5.07058 6.35063 5.75499 6.305 6.20527 6.69899L12.286 12.0196C12.6944 12.377 13.3043 12.377 13.7127 12.0196L19.7935 6.69899C20.2437 6.305 20.9282 6.35063 21.3221 6.8009C21.7161 7.25117 21.6705 7.93558 21.2202 8.32957L15.1395 13.6502C13.9141 14.7224 12.0846 14.7224 10.8592 13.6502L4.77851 8.32957C4.32823 7.93558 4.2826 7.25117 4.67659 6.8009Z" fill="currentColor"></path>
  </symbol>
  <symbol fill="none" xmlns="http://www.w3.org/2000/svg" viewBox="0 0 20 20" id="ic_instagram">
    <path fill-rule="evenodd" clip-rule="evenodd" d="M0.835938 4.49992C0.835938 2.47487 2.47756 0.833252 4.5026 0.833252H15.5026C17.5276 0.833252 19.1693 2.47487 19.1693 4.49992V15.4999C19.1693 17.5249 17.5276 19.1666 15.5026 19.1666H4.5026C2.47756 19.1666 0.835938 17.5249 0.835938 15.4999V4.49992ZM4.5026 2.66659C3.49008 2.66659 2.66927 3.4874 2.66927 4.49992V15.4999C2.66927 16.5125 3.49008 17.3333 4.5026 17.3333H15.5026C16.5152 17.3333 17.3359 16.5125 17.3359 15.4999V4.49992C17.3359 3.4874 16.5152 2.66659 15.5026 2.66659H4.5026ZM10.0026 7.24992C8.48378 7.24992 7.2526 8.48109 7.2526 9.99992C7.2526 11.5187 8.48378 12.7499 10.0026 12.7499C11.5214 12.7499 12.7526 11.5187 12.7526 9.99992C12.7526 8.48109 11.5214 7.24992 10.0026 7.24992ZM5.41927 9.99992C5.41927 7.46862 7.4713 5.41659 10.0026 5.41659C12.5339 5.41659 14.5859 7.46862 14.5859 9.99992C14.5859 12.5312 12.5339 14.5833 10.0026 14.5833C7.4713 14.5833 5.41927 12.5312 5.41927 9.99992ZM15.0443 6.33325C15.8036 6.33325 16.4193 5.71765 16.4193 4.95825C16.4193 4.19886 15.8036 3.58325 15.0443 3.58325C14.2849 3.58325 13.6693 4.19886 13.6693 4.95825C13.6693 5.71765 14.2849 6.33325 15.0443 6.33325Z" fill="currentColor"></path>
  </symbol>
  <symbol fill="none" xmlns="http://www.w3.org/2000/svg" viewBox="0 0 18 18" id="ic_location">
    <path d="M9 0C5.27231 0 2.25 3.02231 2.25 6.75C2.25 8.21784 2.73122 9.56475 3.53109 10.6678C3.54544 10.6943 3.54769 10.7238 3.564 10.7491L8.064 17.4991C8.27269 17.8121 8.62425 18 9 18C9.37575 18 9.72731 17.8121 9.936 17.4991L14.436 10.7491C14.4526 10.7238 14.4546 10.6943 14.4689 10.6678C15.2688 9.56475 15.75 8.21784 15.75 6.75C15.75 3.02231 12.7277 0 9 0ZM9 9C7.75744 9 6.75 7.99256 6.75 6.75C6.75 5.50744 7.75744 4.5 9 4.5C10.2426 4.5 11.25 5.50744 11.25 6.75C11.25 7.99256 10.2426 9 9 9Z" fill="currentColor"></path>
  </symbol>
  <symbol fill="none" xmlns="http://www.w3.org/2000/svg" viewBox="0 0 20 20" id="ic_menu">
    <path d="M3.33594 9.99935H16.6693M3.33594 5.66602H16.6693M3.33594 14.3327H10.0026" stroke="currentColor" stroke-width="1.6" stroke-linecap="round" stroke-linejoin="round"></path>
  </symbol>
  <symbol fill="none" xmlns="http://www.w3.org/2000/svg" viewBox="0 0 18 18" id="ic_notice">
    <path d="M9 16.5C4.85786 16.5 1.5 13.1421 1.5 9C1.5 4.85786 4.85786 1.5 9 1.5C13.1421 1.5 16.5 4.85786 16.5 9C16.5 13.1421 13.1421 16.5 9 16.5ZM8.25 11.25V12.75H9.75V11.25H8.25ZM8.25 5.25V9.75H9.75V5.25H8.25Z" fill="currentColor"></path>
  </symbol>
  <symbol fill="none" xmlns="http://www.w3.org/2000/svg" viewBox="0 0 30 30" id="ic_notice2">
    <path d="M15 27.5C21.9036 27.5 27.5 21.9036 27.5 15C27.5 8.09644 21.9036 2.5 15 2.5C8.09644 2.5 2.5 8.09644 2.5 15C2.5 21.9036 8.09644 27.5 15 27.5Z" stroke="currentColor" stroke-width="2" stroke-linecap="round" stroke-linejoin="round"></path>
    <path d="M15 15V20" stroke="currentColor" stroke-width="2" stroke-linecap="round" stroke-linejoin="round"></path>
    <circle cx="15" cy="10" r="1.25" fill="currentColor"></circle>
  </symbol>
  <symbol fill="none" xmlns="http://www.w3.org/2000/svg" viewBox="0 0 32 32" id="ic_phone">
    <path d="M12 2.66659C12 1.93021 12.597 1.33325 13.3333 1.33325H18.6667C19.4031 1.33325 20 1.93021 20 2.66659V3.99992C20 4.73629 19.4031 5.33325 18.6667 5.33325H13.3333C12.597 5.33325 12 4.73629 12 3.99992V2.66659Z" fill="currentColor"></path>
    <path d="M21.9993 2.3335H9.99935C8.71068 2.3335 7.66602 3.37816 7.66602 4.66683V27.3335C7.66602 28.6222 8.71068 29.6668 9.99935 29.6668H21.9993C23.288 29.6668 24.3327 28.6222 24.3327 27.3335V4.66683C24.3327 3.37816 23.288 2.3335 21.9993 2.3335Z" stroke="currentColor" stroke-width="2.4"></path>
    <path d="M12 26H20" stroke="currentColor" stroke-width="2.4" stroke-linecap="round"></path>
  </symbol>
  <symbol fill="none" xmlns="http://www.w3.org/2000/svg" viewBox="0 0 50 38" id="ic_quote">
    <path d="M9.75232 22.582C12.2291 22.7896 14.0867 23.6202 15.3251 25.0738C16.5635 26.4235 17.1827 28.0328 17.1827 29.9016C17.1827 32.2896 16.3571 34.2623 14.7059 35.8197C13.0547 37.2732 11.1455 38 8.97833 38C6.29515 38 4.12797 37.1694 2.47678 35.5082C0.825593 33.847 0 31.7705 0 29.2787C0 26.7869 0.722394 24.1393 2.16718 21.3361C3.71517 18.429 5.57275 14.7951 7.73994 10.4344L12.8483 0H22.1362L9.75232 22.582ZM37.6161 22.582C40.0929 22.7896 41.9505 23.6202 43.1889 25.0738C44.4272 26.4235 45.0464 28.0328 45.0464 29.9016C45.0464 32.2896 44.2208 34.2623 42.5697 35.8197C40.9185 37.2732 39.0093 38 36.8421 38C34.1589 38 31.9917 37.1694 30.3406 35.5082C28.6894 33.847 27.8638 31.7705 27.8638 29.2787C27.8638 26.7869 28.5862 24.1393 30.031 21.3361C31.5789 18.429 33.4365 14.7951 35.6037 10.4344L40.7121 0H50L37.6161 22.582Z" fill="currentColor"></path>
  </symbol>
  <symbol fill="none" xmlns="http://www.w3.org/2000/svg" viewBox="0 0 12 12" id="ic_sep">
    <path d="M6.6882 6.42532C6.7238 6.43719 6.75939 6.4451 6.79499 6.45697C7.57416 6.70227 8.3296 7.00297 9.04548 7.4184C9.82861 7.88526 10.8411 7.62809 11.3039 6.84471C12.1622 5.36103 10.5049 3.73096 9.04548 4.58556C8.3296 4.99703 7.57416 5.29773 6.79499 5.54698C6.76335 5.55885 6.72775 5.56677 6.69611 5.57468L10.4812 2.85658L12 0.00395647L9.14832 1.52324L6.41925 5.32542C6.43111 5.28586 6.44298 5.24233 6.45484 5.20277C6.70007 4.42334 7.00066 3.66766 7.41595 2.95153C7.88266 2.16815 7.62558 1.15529 6.84245 0.692384C5.35926 -0.166172 3.72973 1.49159 4.58405 2.95153C4.99539 3.66766 5.29598 4.42334 5.54516 5.20277C5.55702 5.23838 5.56889 5.27794 5.5768 5.31355L2.85168 1.51533L0 0L1.51879 2.85262L5.30784 5.57468C5.27225 5.56281 5.2327 5.5549 5.1971 5.54303C4.41793 5.29773 3.66249 4.99703 2.9466 4.5816C1.48715 3.727 -0.174028 5.35707 0.6882 6.84075C1.15491 7.62413 2.16348 7.88131 2.9466 7.41444C3.66249 7.00297 4.41793 6.70227 5.1971 6.45302C5.23665 6.44115 5.28016 6.42928 5.31971 6.41741L1.51879 9.14738L0 12L2.85168 10.4807L5.56889 6.69436C5.56098 6.72601 5.54911 6.76162 5.5412 6.79327C5.29598 7.5727 4.99539 8.32839 4.58009 9.04451C3.72577 10.5045 5.35531 12.1662 6.8385 11.3037C7.62162 10.8368 7.87871 9.82789 7.412 9.04451C7.00066 8.32839 6.70007 7.5727 6.45089 6.79327C6.43902 6.75767 6.43111 6.72206 6.41925 6.68645L9.14436 10.4807L11.996 12L10.4773 9.14738L6.68425 6.42136L6.6882 6.42532Z" fill="currentColor"></path>
  </symbol>
  <symbol fill="none" xmlns="http://www.w3.org/2000/svg" viewBox="0 0 18 18" id="ic_star">
    <path d="M13.8626 12.5756C13.3853 12.6896 12.8872 12.75 12.375 12.75C8.8542 12.75 6 9.8958 6 6.37501C6 6.0124 6.03027 5.65687 6.08843 5.31079C6.06129 5.3369 6.03324 5.36094 6.00371 5.38336C5.79325 5.54313 5.53114 5.60244 5.00692 5.72105L4.52966 5.82903C2.6849 6.24642 1.76252 6.45512 1.54307 7.16081C1.32362 7.86653 1.95244 8.60183 3.21008 10.0724L3.53544 10.4529C3.89282 10.8708 4.07151 11.0798 4.1519 11.3383C4.23229 11.5968 4.20527 11.8756 4.15124 12.4332L4.10205 12.9408C3.91191 14.903 3.81684 15.884 4.39136 16.3202C4.96588 16.7563 5.8295 16.3587 7.55678 15.5634L8.00363 15.3576C8.49443 15.1316 8.73983 15.0187 9 15.0187C9.26018 15.0187 9.50558 15.1316 9.99638 15.3576L10.4432 15.5634C12.1705 16.3587 13.0341 16.7563 13.6087 16.3202C14.1832 15.884 14.0881 14.903 13.898 12.9408L13.8626 12.5756Z" fill="currentColor" fill-opacity="0.42"></path>
    <path d="M6.86487 4.05628L6.6191 4.49717C6.34914 4.98145 6.21416 5.22359 6.00371 5.38336C6.03324 5.36093 6.06129 5.33689 6.08843 5.31079C6.03027 5.65687 6 6.0124 6 6.37501C6 9.8958 8.85416 12.75 12.375 12.75C12.8872 12.75 13.3853 12.6896 13.8626 12.5756L13.8488 12.4332C13.7947 11.8756 13.7677 11.5968 13.8481 11.3383C13.9285 11.0797 14.1072 10.8708 14.4645 10.4529L14.79 10.0724C16.0476 8.60182 16.6764 7.86645 16.4569 7.1608C16.2375 6.45511 15.3151 6.24642 13.4703 5.82902L12.9931 5.72104C12.4689 5.60242 12.2067 5.54312 11.9963 5.38336C11.7858 5.22359 11.6508 4.98145 11.3809 4.49718L11.1351 4.05628C10.1851 2.35209 9.71013 1.5 9.00003 1.5C8.28985 1.5 7.81488 2.3521 6.86487 4.05628Z" fill="currentColor"></path>
  </symbol>
  <symbol fill="none" xmlns="http://www.w3.org/2000/svg" viewBox="0 0 16 16" id="ic_star2">
    <path d="M15.9734 6.06925C15.9139 5.8915 15.7599 5.762 15.5747 5.7335L10.6562 4.982L8.4524 0.2875C8.3699 0.112 8.1934 0 7.99965 0C7.8059 0 7.62965 0.112 7.5469 0.2875L5.34315 4.982L0.424654 5.73375C0.239404 5.762 0.085654 5.89175 0.025904 6.0695C-0.033596 6.247 0.011154 6.443 0.142154 6.57725L3.71565 10.2415L2.87115 15.4175C2.84015 15.6065 2.9199 15.7967 3.07665 15.9067C3.16265 15.9675 3.2634 15.9982 3.3644 15.9982C3.4474 15.9982 3.5309 15.9772 3.6064 15.9357L7.9994 13.506L12.3924 15.9357C12.4679 15.9772 12.5514 15.9982 12.6344 15.9982C12.7354 15.9982 12.8364 15.9675 12.9222 15.9067C13.0789 15.7967 13.1587 15.6065 13.1277 15.4175L12.2832 10.2415L15.8567 6.57725C15.9879 6.44275 16.0329 6.24675 15.9734 6.06925Z" fill="currentColor"></path>
  </symbol>
  <symbol fill="none" xmlns="http://www.w3.org/2000/svg" viewBox="0 0 22 22" id="ic_tg">
    <path d="M3.06428 9.92897C8.70941 7.44553 16.0147 4.4177 17.023 3.99862C19.6682 2.90176 20.4798 3.11197 20.0751 5.54106C19.7845 7.28697 18.9459 13.0673 18.2776 16.6651C17.8809 18.7987 16.9911 19.0515 15.592 18.1285C14.9191 17.6843 11.523 15.4384 10.7859 14.9111C10.1131 14.4305 9.18507 13.8524 10.3489 12.7138C10.763 12.3082 13.4778 9.71606 15.5929 7.69841C15.87 7.4334 15.5219 6.99816 15.2021 7.21061C12.3512 9.10116 8.39858 11.7252 7.89552 12.067C7.13553 12.5831 6.40563 12.8198 5.09541 12.4434C4.10545 12.1591 3.13839 11.82 2.76199 11.6906C1.31253 11.1929 1.65659 10.5484 3.06428 9.92897Z" fill="currentColor"></path>
  </symbol>
  <symbol fill="none" xmlns="http://www.w3.org/2000/svg" viewBox="0 0 32 32" id="ic_user">
    <path d="M28.3154 26.8613C28.1904 26.3916 28.0137 25.9707 27.7949 25.5957C27.4121 24.9375 26.9043 24.4258 26.3457 24.0205C25.9257 23.7158 25.4765 23.4688 25.0214 23.2539C24.5575 23.0371 24.0868 22.8554 23.6318 22.6855C23.1601 22.0195 22.412 20.998 22.4325 19.3506C22.4462 18.2891 22.5292 18.0136 22.5458 14.9433C22.7978 14.7343 23.0361 14.4726 23.2412 14.1464C23.5117 13.7206 23.7275 13.1933 23.875 12.539C23.916 12.3574 23.9355 12.1777 23.9355 12.0019C23.9365 11.6298 23.8486 11.2753 23.7012 10.9609C23.5996 10.7421 23.4697 10.5409 23.3183 10.3593C23.3955 10.0741 23.4902 9.69131 23.5723 9.24212C23.6875 8.61906 23.7832 7.872 23.7832 7.08488C23.7832 6.57806 23.7432 6.05463 23.6407 5.53606C23.5635 5.14838 23.4502 4.76362 23.2891 4.39444C23.0488 3.83975 22.6992 3.31825 22.2129 2.88856C21.7627 2.48819 21.1973 2.17175 20.5166 1.96669C20.2285 1.62294 19.9307 1.32994 19.624 1.08581C19.1065 0.67175 18.5605 0.395375 18.0049 0.228375C17.4502 0.0605625 16.8867 0 16.3262 0C16.0293 0 15.7334 0.0175625 15.4375 0.0449375C15.1601 0.068375 14.9297 0.0976875 14.7236 0.132812C14.415 0.183625 14.1611 0.251938 13.915 0.337875C13.6679 0.422813 13.4306 0.5215 13.12 0.6445C13.0009 0.689438 12.8456 0.75875 12.6591 0.8535C12.332 1.0195 11.912 1.26169 11.4608 1.59763C10.7861 2.10156 10.041 2.8125 9.45897 3.77537C9.16991 4.25781 8.91991 4.80075 8.7461 5.41012C8.57028 6.0195 8.46872 6.69137 8.46872 7.42575C8.46872 7.88475 8.50879 8.36913 8.59372 8.87594C8.59372 8.91206 8.59472 8.94431 8.59766 8.9785C8.6016 9.041 8.60741 9.10837 8.61429 9.17575C8.62504 9.27731 8.63772 9.38081 8.64654 9.46875C8.65141 9.51369 8.65535 9.55275 8.65729 9.58206C8.65829 9.59769 8.66022 9.61037 8.66022 9.61919V9.62994V9.63288V9.6915L8.78422 10.2432C8.60647 10.4376 8.45216 10.6554 8.3321 10.8966C8.1651 11.2286 8.06547 11.6036 8.06547 12.0021C8.06547 12.1779 8.08504 12.3595 8.12604 12.5392C8.22466 12.9747 8.3536 13.3556 8.50785 13.6857C8.74122 14.1837 9.03422 14.5724 9.36135 14.8615C9.39066 14.8889 9.42191 14.9162 9.45316 14.9406C9.46879 18.0139 9.55178 18.2892 9.56547 19.3508C9.58597 20.9993 8.83697 22.0198 8.36622 22.6868C8.1621 22.7629 7.95604 22.8411 7.74904 22.9241C7.23147 23.1311 6.70804 23.3635 6.20997 23.6584C5.83597 23.8791 5.4756 24.1331 5.14454 24.4368C4.64841 24.8909 4.22072 25.4563 3.92579 26.1584C3.62891 26.8577 3.46385 27.6877 3.46485 28.6672C3.46485 28.8049 3.49316 28.9377 3.54197 29.0589C3.58591 29.1741 3.64747 29.2776 3.71972 29.3773C3.85547 29.5628 4.03122 29.7288 4.2471 29.889C4.62504 30.1664 5.12697 30.4281 5.77735 30.6742C6.75097 31.0414 8.0576 31.3695 9.7461 31.6117C11.4345 31.8506 13.5048 32 16 32C18.164 32 20.0078 31.8877 21.5595 31.7012C22.7236 31.5625 23.7246 31.3809 24.5742 31.1738C25.2109 31.0176 25.7636 30.8476 26.2372 30.667C26.5927 30.5332 26.9042 30.3926 27.1747 30.2481C27.3768 30.1406 27.5575 30.0293 27.7157 29.916C27.954 29.7441 28.1454 29.5644 28.29 29.3633C28.3622 29.2636 28.4228 29.1562 28.4667 29.039C28.5097 28.9237 28.536 28.7978 28.536 28.6669C28.5361 27.9971 28.459 27.3984 28.3154 26.8613ZM11.2197 22.6152C11.4102 22.5019 11.5947 22.3809 11.7656 22.2441C11.9482 22.0976 12.1182 21.9326 12.2666 21.748L15.666 23.3261L14.0683 26.2568L11.2197 22.6152ZM16.2675 29.0684L14.5595 26.8848L16.1738 23.9219L17.7822 26.8721L16.2675 29.0684ZM18.248 26.1973L16.6728 23.3096L19.708 21.7148C19.7754 21.8008 19.8457 21.8828 19.9219 21.9599C20.1622 22.207 20.4405 22.4121 20.7383 22.5898L18.248 26.1973ZM21.9453 14.0821C21.7285 14.2754 21.5 14.4014 21.2597 14.4883L21.0292 14.5732L20.9482 14.8047C20.6962 15.5118 20.452 16.0801 20.207 16.5371C19.9618 16.9922 19.7187 17.334 19.4648 17.6026L19.3652 17.709L19.3339 17.8496C19.2206 18.3711 19.1073 18.9473 19.1073 19.6289C19.1073 19.8399 19.1181 20.0586 19.1425 20.2901C19.1699 20.5606 19.2314 20.8145 19.3252 21.0489C19.3291 21.0606 19.334 21.0704 19.3388 21.0821L16.164 22.75L12.6465 21.1191C12.7548 20.8652 12.8281 20.5879 12.8593 20.29V20.289C12.8828 20.0585 12.8935 19.8398 12.8935 19.6298C12.8935 18.9472 12.7812 18.3691 12.667 17.8476L12.6357 17.7069L12.5361 17.6014C12.2832 17.3339 12.039 16.9921 11.7939 16.535C11.5498 16.0799 11.3056 15.5116 11.0547 14.8045L10.9726 14.5731L10.7421 14.4901C10.5819 14.4305 10.4277 14.3533 10.2772 14.2537C10.0526 14.1034 9.83872 13.8963 9.64341 13.5887C9.4471 13.2801 9.27135 12.867 9.14441 12.3084C9.12097 12.2029 9.11022 12.1004 9.11022 12.0018C9.11022 11.7791 9.16491 11.5662 9.26647 11.3622C9.35047 11.1942 9.46666 11.0351 9.61022 10.8905C9.84947 11.2538 10.0477 11.5409 10.12 11.6132C10.3553 11.8486 10.3885 11.2948 10.2762 10.6728C10.0712 9.52919 10.6268 10.0468 12.037 7.30456C14.8583 7.93056 19.788 4.9315 19.788 4.9315C19.788 4.9315 19.8475 6.29869 20.788 7.55356C21.6796 8.74206 22.1874 11.535 22.1874 11.535C22.1874 11.535 22.3095 11.3045 22.4902 10.9959C22.5985 11.1229 22.6884 11.2596 22.7538 11.4022C22.8427 11.5936 22.8906 11.7928 22.8906 12.0018C22.8906 12.0995 22.8798 12.203 22.8564 12.3084C22.7724 12.6805 22.665 12.9881 22.5458 13.244C22.3672 13.626 22.1611 13.8887 21.9453 14.0821Z" fill="currentColor"></path>
    <path d="M15.8867 26.6055C15.8867 26.8008 16.0449 26.959 16.2402 26.959C16.4345 26.959 16.5928 26.8008 16.5928 26.6055C16.5928 26.4121 16.4346 26.2539 16.2402 26.2539C16.0449 26.2539 15.8867 26.4121 15.8867 26.6055Z" fill="currentColor"></path>
  </symbol>
  <symbol fill="none" xmlns="http://www.w3.org/2000/svg" viewBox="0 0 20 20" id="ic_vk">
    <path d="M12.1106 9.77219C11.7449 9.63034 11.7449 9.08859 11.7222 8.71133C11.6308 7.36753 12.0879 5.31598 11.5394 4.44375C11.151 3.92464 9.27636 3.97218 8.13388 4.0431C7.81352 4.09064 7.42513 4.16081 7.15085 4.30266C6.87657 4.44451 6.60229 4.67992 6.60229 4.89194C6.60229 5.19828 7.28836 5.1515 7.53924 5.55215C7.81352 5.97694 7.81352 6.89595 7.81352 7.65047C7.81352 8.5227 7.67601 9.67863 7.33371 9.72541C6.80782 9.7488 6.51086 9.2063 6.23658 8.80565C5.68801 8.02774 5.13945 7.06044 4.72766 6.11728C4.52213 5.62232 4.4073 5.07982 4.11034 4.8678C3.6532 4.53731 2.83036 4.51392 2.03018 4.53731C1.29876 4.5607 0.246983 4.46639 0.0414545 4.91458C-0.118726 5.40954 0.224309 5.88112 0.407164 6.28253C1.34411 8.38085 2.34981 10.2204 3.58445 11.9648C4.72766 13.5916 5.80138 14.8886 7.90421 15.5722C8.49886 15.7608 11.1042 16.3033 11.6301 15.5722C11.8129 15.2893 11.7676 14.6524 11.859 14.1809C11.9504 13.7093 12.0645 13.2377 12.499 13.2143C12.8647 13.1909 13.0702 13.5207 13.2992 13.7568C13.5508 14.0164 13.7563 14.2284 13.9392 14.4646C14.3736 14.9128 14.8308 15.5254 15.3793 15.7616C16.1334 16.0921 17.2993 15.9978 18.3964 15.9502C19.288 15.9268 19.928 15.7382 19.9968 15.1957C20.0429 14.7709 19.585 14.1582 19.3107 13.8044C18.6246 12.9321 18.305 12.6726 17.5275 11.8705C17.1845 11.5166 16.75 11.1394 16.75 10.7153C16.7273 10.4558 16.9329 10.2204 17.1157 9.96082C17.9159 8.73472 18.7161 7.8625 19.4475 6.58886C19.653 6.2116 20.1335 5.33937 19.9507 4.91458C19.7452 4.443 18.602 4.58409 17.8932 4.58409C16.9789 4.58409 15.7904 4.51317 15.5614 4.7018C15.127 5.00814 14.9441 5.50386 14.7386 5.97543C14.2815 7.06044 13.6641 8.16808 13.0241 8.99353C12.7952 9.27647 12.3615 9.86575 12.1099 9.77144L12.1106 9.77219Z" fill="currentColor"></path>
  </symbol>
  <symbol fill="none" xmlns="http://www.w3.org/2000/svg" viewBox="0 0 22 22" id="ic_whatsapp">
    <path d="M18.4771 6.27006C15.8371 2.20006 10.4471 0.990061 6.26707 3.52006C2.19707 6.05006 0.877072 11.5501 3.51707 15.6201L3.73707 15.9501L2.85707 19.2501L6.15707 18.3701L6.48707 18.5901C7.91707 19.3601 9.45707 19.8001 10.9971 19.8001C12.6471 19.8001 14.2971 19.3601 15.7271 18.4801C19.7971 15.8401 21.0071 10.4501 18.4771 6.27006ZM16.1671 14.7401C15.7271 15.4001 15.1771 15.8401 14.4071 15.9501C13.9671 15.9501 13.4171 16.1701 11.2171 15.2901C9.34707 14.4101 7.80707 12.9801 6.70707 11.3301C6.04707 10.5601 5.71707 9.57006 5.60707 8.58006C5.60707 7.70006 5.93707 6.93006 6.48707 6.38006C6.70707 6.16006 6.92707 6.05006 7.14707 6.05006H7.69707C7.91707 6.05006 8.13707 6.05006 8.24707 6.49006C8.46707 7.04006 9.01707 8.36006 9.01707 8.47006C9.12707 8.58006 9.12707 8.80006 9.01707 8.91006C9.12707 9.13006 9.01707 9.35006 8.90707 9.46006C8.79707 9.57006 8.68707 9.79006 8.57707 9.90006C8.35707 10.0101 8.24707 10.2301 8.35707 10.4501C8.79707 11.1101 9.34707 11.7701 9.89707 12.3201C10.5571 12.8701 11.2171 13.3101 11.9871 13.6401C12.2071 13.7501 12.4271 13.7501 12.5371 13.5301C12.6471 13.3101 13.1971 12.7601 13.4171 12.5401C13.6371 12.3201 13.7471 12.3201 13.9671 12.4301L15.7271 13.3101C15.9471 13.4201 16.1671 13.5301 16.2771 13.6401C16.3871 13.9701 16.3871 14.4101 16.1671 14.7401Z" fill="currentColor"></path>
  </symbol>
</svg>